<?xml version="1.0" encoding="utf-8" ?>
<svg xmlns="http://www.w3.org/2000/svg" xmlns:xlink="http://www.w3.org/1999/xlink" width="204" height="204">
	<path fill="#0070BC" transform="scale(0.199219 0.199219)" d="M631.458 153.038L631.589 151.526L631.25 151C631.242 149.815 630.579 149.313 629.758 148.492L629.25 148C629.241 146.666 621.862 139.915 620.497 138.502L619.75 138.5L618.997 137.502C618.055 137.226 617.619 136.948 616.985 136.22L616.375 135.502L615.75 135.5L614.997 134.502L614.25 134.5C613.669 133.635 613.947 133.785 613 133.377C612.082 132.983 611.663 132.412 610.875 132.002L610 131.75L609.5 131.377C608.802 130.998 608.554 131.079 607.875 130.478L607.375 130.002C606.683 130 606.104 129.876 605.5 129.5L604.875 129.002L604.25 129L603.75 128.255L603 128.5L602.497 128.002L601.5 127.877C600.341 127.52 601.416 127.469 600.25 127.255C598.783 126.986 597.327 126.283 595.813 126.431L595.25 126.5L594.75 125.755L593 126C591.629 124.908 590.634 125.324 589 125.5C587.2 124.3 583.795 124.764 581.656 124.939L581 125C579.785 124.19 578.015 124.504 576.553 124.506L564.564 124.517L527.217 124.516C525.55 124.54 523.438 124.935 522.25 123.755C521.372 123.788 520.649 123.771 519.828 124.134L519.375 124.375L518.25 124.255C515.572 124.414 512.758 124.052 510.141 124.309C508.203 124.499 503.935 124.861 502.125 124.375L501.25 124C499.845 123.581 498.6 123.7 497.375 124.375L495.5 124.377C494.529 124.428 493.447 124.648 492.5 124.255C489.996 123.216 485.853 123.755 483 123.755C481.358 122.66 476.173 123.255 474 123.255L473.5 122.745L474.125 122.125C474.725 122.572 474.417 122.498 474.998 122.498L475 121.75L475.745 121.25L475.25 120.755L475.623 119.5L475.998 118.875C475.998 118.445 475.944 117.887 475.745 117.5C475.208 116.455 475.25 116.655 475.245 115.5L473.998 114.002L473.245 112C472.82 111.278 472.506 111.214 472.325 110.314L472.245 109.75C471.379 108.949 470.581 108.263 470.043 107.189C469.53 106.165 469.998 106.782 469.25 105.755L462.498 96.5025C462 95.4544 462.557 96.0265 461.865 95.3471C461.128 94.624 460.552 94.1888 460.075 93.2358C459.448 91.9853 460.088 92.9915 459.229 91.7027L458.745 91L458.25 90.255L452.745 82.5L452.25 81.755L447.245 75C446.48 73.92 445.958 72.7966 445.229 71.7027L444.745 71L444.25 70.255L438.245 62C437.631 61.1528 437.504 60.2576 436.949 59.5166C436.401 58.7848 435.58 58.4097 435 57.755C434.292 56.9565 433.349 55.9549 432.875 54.9975L433.5 54.6225L434.245 54.25C433.604 53.6092 433.908 53.8376 433.093 53.3478C432.228 52.8284 432.568 53.2516 432.248 52.125C433.016 51.9167 433.717 51.8367 434.508 51.7944L435.5 51.745C436.331 51.1926 436.001 51.2553 436.833 51.1708L441 50.6225C443.496 49.8237 445.866 50.0668 448.375 49.4975L449.5 49.1225C452.108 49.0235 447.979 49.6526 451.242 49.0758C451.974 48.9464 452.599 48.8544 453.352 48.8022C455.445 48.6571 457.465 48.1536 459.57 47.9989C461.193 47.8797 463.298 48.0721 464.828 47.5691C465.605 47.3135 466.674 47.0615 467.5 47.1225C468.593 47.2032 467.882 47.3224 468.74 47.1806C470.901 46.8232 474.328 47.1666 476.115 46.3765C476.859 46.0472 477.421 45.9738 478.25 46C479.089 46.0265 479.55 46.1307 480.43 46.0145C482.428 45.7507 485.497 46.1288 487.216 45.3687L487.625 45.125C492.141 45.7684 496.924 44.9994 501.43 44.9901C503.069 44.9867 505.726 45.4075 507.25 45L508.125 44.625C511.201 45.0633 515.009 44.9203 518.093 44.5536L518.5 44.5C521.286 46.3573 531.738 44.3019 535.5 45.25C537.914 45.8584 540.935 46.2501 543.417 45.4466L544.251 45.1483L578.5 48.6594C690.678 65.7791 793.503 122.663 866.49 209.666C901.121 250.948 930.324 297.861 948.552 348.735L958.964 380.855C960.486 386.169 961.583 391.65 963.285 396.902L971.492 438.5C974.689 460.18 976.383 481.596 976.983 503.5C977.352 517.003 977.58 531.321 975.956 544.739C970.91 542.088 967.476 537.333 963.466 533.413L937.25 507.794L893.337 465.545L867.136 439.217C864.712 436.876 861.902 433.499 859.012 431.867C858.146 431.378 857.134 431.164 856.161 431.028L851.088 424.965C847.502 421.235 842.59 418.178 837.639 416.696C830.098 414.441 822.356 414.853 814.585 414.841L785.967 414.683L747.637 414.736L718.556 414.931L695.654 414.926C695.138 407.022 695.715 398.936 695.488 391C695.159 379.524 692.852 367.937 687.196 357.852C676.708 339.149 659.539 329.047 639.446 323.422L639.223 299.96L639.572 286.902L639.963 250L639.97 235.042L639.945 222.821L640.013 193.314C640.024 185.233 640.435 176.392 638.459 168.5C637.067 162.943 634.222 158.002 631.458 153.038ZM639.963 250L639.572 286.902L639.223 299.96L639.446 323.422C659.539 329.047 676.708 339.149 687.196 357.852C692.852 367.937 695.159 379.524 695.488 391C695.715 398.936 695.138 407.022 695.654 414.926L718.556 414.931L747.637 414.736L785.967 414.683L784.016 408.5C779.457 395.895 774.467 383.456 768.21 371.583C740.02 318.091 694.706 275.439 639.963 250ZM774.348 291.828L773.91 292.657C772.086 295.73 771.462 299.216 772.273 302.744C773.112 306.393 776.438 310.02 779.685 311.785C785.083 314.719 791.732 314.989 797.557 313.188L798.05 313.023L798.622 312.866C799.241 311.056 799.235 309.891 799.017 308C797.378 306.23 795.987 306.152 793.75 305.543C792.305 304.098 791.441 303.306 791.25 301.129C790.825 296.279 799.281 294.323 802.115 291.29C803.332 289.988 802.914 287.682 802.927 285.953L802.681 285.896C796.228 283.683 788.497 282.682 782.085 285.713C778.951 287.195 776.694 289.361 774.348 291.828ZM802.964 231.675L802.93 285.45C803.528 285.428 804.097 285.527 804.624 285.193C806.095 284.259 806.333 282.703 806.572 281.121C806.807 279.565 807.12 278.227 807.657 276.75L809 276.75L809.75 277.181L810.049 258.086L810.098 257.492C810.821 252.328 810.053 245.866 810.011 240.578L809.181 240.43C808.015 240.34 807.118 240.414 805.938 240.138C803.901 237.85 804.108 235.204 803.95 232.268L802.964 231.675ZM802.927 285.953C802.914 287.682 803.332 289.988 802.115 291.29C799.281 294.323 790.825 296.279 791.25 301.129C791.441 303.306 792.305 304.098 793.75 305.543C795.987 306.152 797.378 306.23 799.017 308C799.235 309.891 799.241 311.056 798.622 312.866C800.755 312.074 802.607 310.97 804.548 309.808L805.571 308.269L805.678 307.395C806.11 304.961 804.913 302.525 805.455 300.259C805.904 298.384 808.077 294.768 809.75 293.867C810.129 292.224 809.931 290.702 809.786 289.045C808.902 289.315 808.181 288.949 807.312 288.741C805.418 288.288 804.644 287.832 803.299 286.371L802.927 285.953ZM810.764 228.041C808.074 227.858 805.484 228.486 802.922 229.273L802.578 231.545L802.964 231.675L803.95 232.268C804.108 235.204 803.901 237.85 805.938 240.138C807.118 240.414 808.015 240.34 809.181 240.43L810.011 240.578C811.891 241.36 813.74 241.897 815.715 242.385C818.213 243.003 820.737 243.528 823.101 244.562C823.375 242.564 823.277 239.032 824.334 237.34L824.75 236.842L824.268 234.72C823.136 233.756 821.264 233.19 819.877 232.598C816.536 231.354 813.596 230.276 810.764 228.041ZM824.268 234.72L824.75 236.842L824.334 237.34C823.277 239.032 823.375 242.564 823.101 244.562C825.892 247.969 825.939 250.402 826.256 254.637C826.336 255.708 826.22 257.821 826.919 258.687C827.346 259.216 830.964 260.603 831.863 261.133C833.557 256.686 832.919 247.487 831.877 242.868C830.232 239.389 827.495 236.729 824.268 234.72ZM810.098 257.492L810.049 258.086L809.75 277.181L809 276.75L807.657 276.75C807.12 278.227 806.807 279.565 806.572 281.121C806.333 282.703 806.095 284.259 804.624 285.193C804.097 285.527 803.528 285.428 802.93 285.45L802.927 285.953L803.299 286.371C804.644 287.832 805.418 288.288 807.312 288.741C808.181 288.949 808.902 289.315 809.786 289.045C809.931 290.702 810.129 292.224 809.75 293.867C808.077 294.768 805.904 298.384 805.455 300.259C804.913 302.525 806.11 304.961 805.678 307.395L805.571 308.269L804.548 309.808C805.628 309.011 806.696 308.074 807.599 307.083C808.906 305.649 809.931 303.778 810.287 301.865C811.19 297.019 810.513 291.258 810.483 286.32L810.098 257.492ZM802.922 229.273C805.484 228.486 808.074 227.858 810.764 228.041C809.585 225.965 808.874 223.807 806.75 222.653C805.261 222.704 804.712 222.831 803.531 223.75C802.462 225.885 802.761 227.001 802.922 229.273Z"/>
	<path fill="#2487C9" transform="scale(0.199219 0.199219)" d="M773.91 292.657L758.937 278.215C756.054 275.476 752.974 273.051 750.686 269.763L751.924 268C752.687 266.891 753.571 266.125 754.58 265.25L755.394 265.583L755.551 266.75L753.537 269.067C753.579 270.578 757.65 273.984 758.894 275.229L775.941 258.262C778.74 255.47 781.543 252.098 784.883 249.955L784.409 250.759C782.668 253.584 779.351 256.178 776.958 258.566L758.625 276.885L774.348 291.828L773.91 292.657Z"/>
	<path fill="#FEFEFE" fill-opacity="0.87843138" transform="scale(0.199219 0.199219)" d="M810.098 257.492L810.483 286.32C810.513 291.258 811.19 297.019 810.287 301.865C809.931 303.778 808.906 305.649 807.599 307.083C806.696 308.074 805.628 309.011 804.548 309.808L805.571 308.269L805.678 307.395C806.11 304.961 804.913 302.525 805.455 300.259C805.904 298.384 808.077 294.768 809.75 293.867C810.129 292.224 809.931 290.702 809.786 289.045C808.902 289.315 808.181 288.949 807.312 288.741C805.418 288.288 804.644 287.832 803.299 286.371L802.927 285.953L802.93 285.45C803.528 285.428 804.097 285.527 804.624 285.193C806.095 284.259 806.333 282.703 806.572 281.121C806.807 279.565 807.12 278.227 807.657 276.75L809 276.75L809.75 277.181L810.049 258.086L810.098 257.492Z"/>
	<path fill="#004495" transform="scale(0.199219 0.199219)" d="M831.877 242.868C835.161 243.787 836.889 245.815 838.598 248.782C842.432 255.439 841.524 263.192 841.463 270.574C838.794 268.803 832.854 265.301 831.983 262.26C831.858 261.824 831.874 261.562 831.863 261.133C833.557 256.686 832.919 247.487 831.877 242.868Z"/>
	<defs>
		<linearGradient id="gradient_0" gradientUnits="userSpaceOnUse" x1="809.35266" y1="233.49246" x2="809.16895" y2="237.08533">
			<stop offset="0" stop-color="white" stop-opacity="0.69803923"/>
			<stop offset="1" stop-color="white" stop-opacity="0.74117649"/>
		</linearGradient>
	</defs>
	<path fill="url(#gradient_0)" transform="scale(0.199219 0.199219)" d="M810.764 228.041C813.596 230.276 816.536 231.354 819.877 232.598C821.264 233.19 823.136 233.756 824.268 234.72L824.75 236.842L824.334 237.34C823.277 239.032 823.375 242.564 823.101 244.562C820.737 243.528 818.213 243.003 815.715 242.385C813.74 241.897 811.891 241.36 810.011 240.578L809.181 240.43C808.015 240.34 807.118 240.414 805.938 240.138C803.901 237.85 804.108 235.204 803.95 232.268L802.964 231.675L802.578 231.545L802.922 229.273C805.484 228.486 808.074 227.858 810.764 228.041ZM819.877 232.598C819.32 233.185 818.903 233.706 818.5 234.408L818.03 234.637C816.339 235.476 814.93 236.444 813.447 237.606C814.95 239.227 815.72 239.535 815.749 241.853L815.715 242.385C818.213 243.003 820.737 243.528 823.101 244.562C823.375 242.564 823.277 239.032 824.334 237.34L824.75 236.842L824.268 234.72C823.136 233.756 821.264 233.19 819.877 232.598Z"/>
	<path fill="#FEFEFE" fill-opacity="0.46666667" transform="scale(0.199219 0.199219)" d="M819.877 232.598C821.264 233.19 823.136 233.756 824.268 234.72L824.75 236.842L824.334 237.34C823.277 239.032 823.375 242.564 823.101 244.562C820.737 243.528 818.213 243.003 815.715 242.385L815.749 241.853C815.72 239.535 814.95 239.227 813.447 237.606C814.93 236.444 816.339 235.476 818.03 234.637L818.5 234.408C818.903 233.706 819.32 233.185 819.877 232.598Z"/>
	<path fill="#FEFEFE" fill-opacity="0.39215687" transform="scale(0.199219 0.199219)" d="M802.927 285.953L803.299 286.371C804.644 287.832 805.418 288.288 807.312 288.741C808.181 288.949 808.902 289.315 809.786 289.045C809.931 290.702 810.129 292.224 809.75 293.867C808.077 294.768 805.904 298.384 805.455 300.259C804.913 302.525 806.11 304.961 805.678 307.395L805.571 308.269L804.548 309.808C802.607 310.97 800.755 312.074 798.622 312.866C799.241 311.056 799.235 309.891 799.017 308C797.378 306.23 795.987 306.152 793.75 305.543C792.305 304.098 791.441 303.306 791.25 301.129C790.825 296.279 799.281 294.323 802.115 291.29C803.332 289.988 802.914 287.682 802.927 285.953Z"/>
	<defs>
		<linearGradient id="gradient_1" gradientUnits="userSpaceOnUse" x1="816.49854" y1="256.07486" x2="794.578" y2="267.7533">
			<stop offset="0" stop-color="white" stop-opacity="0.95294118"/>
			<stop offset="1" stop-color="white"/>
		</linearGradient>
	</defs>
	<path fill="url(#gradient_1)" transform="scale(0.199219 0.199219)" d="M802.964 231.675L803.95 232.268C804.108 235.204 803.901 237.85 805.938 240.138C807.118 240.414 808.015 240.34 809.181 240.43L810.011 240.578C810.053 245.866 810.821 252.328 810.098 257.492L810.049 258.086L809.75 277.181L809 276.75L807.657 276.75C807.12 278.227 806.807 279.565 806.572 281.121C806.333 282.703 806.095 284.259 804.624 285.193C804.097 285.527 803.528 285.428 802.93 285.45L802.964 231.675Z"/>
	<path fill="#FEFEFE" fill-opacity="0.15686275" transform="scale(0.199219 0.199219)" d="M802.681 285.896L802.927 285.953C802.914 287.682 803.332 289.988 802.115 291.29C799.281 294.323 790.825 296.279 791.25 301.129C791.441 303.306 792.305 304.098 793.75 305.543C795.987 306.152 797.378 306.23 799.017 308C799.235 309.891 799.241 311.056 798.622 312.866L798.05 313.023C796.113 311.519 794.129 309.96 792.034 308.677C790.089 307.486 787.78 307.016 786.255 305.25C785.181 302.246 785.072 299.181 786.318 296.234C786.731 295.259 787.178 294.41 787.235 293.336L787.256 292.5L787.299 291.815C787.341 291.026 788.319 290.377 788.881 289.815C789.911 289.559 790.499 289.478 791.557 289.718L794.25 290.315C795.96 290.516 799.623 289.564 800.775 288.307L802.681 285.896Z"/>
	<path fill="#CEE8F9" transform="scale(0.199219 0.199219)" d="M639.572 286.902C640.628 287.624 640.886 288.002 641.518 289.094C643.609 292.716 650.853 295.998 654.525 298.419C664.415 304.94 673.852 312.041 682.803 319.811C705.884 339.842 725.493 365.353 739.46 392.5L745.993 406.25C747.055 408.751 748.308 411.192 747.773 413.938L747.637 414.736L718.556 414.931L695.654 414.926C695.138 407.022 695.715 398.936 695.488 391C695.159 379.524 692.852 367.937 687.196 357.852C676.708 339.149 659.539 329.047 639.446 323.422L639.223 299.96L639.572 286.902Z"/>
	<defs>
		<linearGradient id="gradient_2" gradientUnits="userSpaceOnUse" x1="646.54803" y1="447.96664" x2="683.21802" y2="966.0481">
			<stop offset="0" stop-color="#027B74"/>
			<stop offset="1" stop-color="#03C6A5"/>
		</linearGradient>
	</defs>
	<path fill="url(#gradient_2)" transform="scale(0.199219 0.199219)" d="M785.967 414.683L814.585 414.841C822.356 414.853 830.098 414.441 837.639 416.696C842.59 418.178 847.502 421.235 851.088 424.965L856.161 431.028C857.134 431.164 858.146 431.378 859.012 431.867C861.902 433.499 864.712 436.876 867.136 439.217L893.337 465.545L937.25 507.794L963.466 533.413C967.476 537.333 970.91 542.088 975.956 544.739C973.393 575.782 968.387 606.461 960.165 636.523C934.889 728.949 881.658 810.877 808.764 872.861C790.02 888.799 770.483 902.15 749.356 914.71C716.67 934.143 681.472 950.162 645 961.008L626.75 966.028C625.128 966.418 622.75 967.311 621.113 967.295L601.475 971.301L583.052 974.313L514.904 978.169C506.533 978.546 497.034 980.299 488.743 979.011C486.271 979.276 483.185 978.741 480.667 978.578L461.653 976.853C437.821 974.076 414.209 970.204 391 964.014C370.477 958.541 350.751 951.148 331.086 943.203L332.002 942.003C333.252 939.597 335.873 937.58 337.835 935.621L350.664 922.836C352.319 921.191 354.508 919.5 356 917.762L356.271 917.25C357.941 916.609 359.657 914.379 360.937 913.099L370.278 903.753C371.923 902.106 373.99 900.478 375.5 898.77L375.801 898.25C377.944 897.387 379.701 894.559 381.308 892.951L382.5 891.778C384.441 889.411 386.87 886.942 389.221 884.938C391.335 883.138 393.216 881.378 395.634 879.972L370.096 854.574C364.67 849.216 358.558 844.228 353.43 838.628C351.94 837.001 350.748 835.725 350.168 833.54C354.017 835.532 357.488 838.199 361.216 840.404C367.83 844.314 374.891 846.904 382.436 848.194L391.865 849.227C409.201 850.24 426.949 849.468 444.341 849.521L548.138 849.722L610.183 849.558C620.034 849.496 630.648 850.447 640.346 848.815C652.899 846.702 664.588 841.796 674.115 833.206C685.252 823.162 693.854 808.157 695.375 793.089C696.754 779.434 694.989 765.154 695.681 751.399L695.664 628.768L695.814 592.029L695.8 569.052L695.711 550.493L695.674 533.468L695.786 513.004L695.762 494.779L695.751 476.959L695.777 455.903C695.354 451.812 695.751 447.335 695.755 443.192L695.654 414.926L718.556 414.931L747.637 414.736L785.967 414.683ZM785.967 414.683L747.637 414.736L718.556 414.931L695.654 414.926L695.755 443.192C695.751 447.335 695.354 451.812 695.777 455.903L695.751 476.959L695.762 494.779L695.786 513.004L695.674 533.468L695.711 550.493L695.8 569.052L695.814 592.029L695.664 628.768L718.012 628.624L746.574 628.548L773.711 628.556C777.129 628.557 781.502 629.066 784.815 628.521C789.974 629.236 795.224 628.884 800.421 628.922C812.677 629.011 826.635 630.359 838.063 625.152C847.287 620.949 854.233 613.039 857.713 603.553C858.89 600.343 859.698 596.952 859.936 593.538C860.511 585.291 860.156 576.806 860.229 568.533L860.402 513.088L860.46 470.237C860.474 462.27 860.879 454.089 860.229 446.16C859.761 440.46 858.535 436.231 856.161 431.028L851.088 424.965C847.502 421.235 842.59 418.178 837.639 416.696C830.098 414.441 822.356 414.853 814.585 414.841L785.967 414.683ZM718.012 628.624L695.664 628.768L695.681 751.399L696.149 751.532L696.574 751.576C704.481 745.458 711.005 738.492 717.883 731.292C746.414 701.421 769.786 667.142 784.815 628.521C781.502 629.066 777.129 628.557 773.711 628.556L746.574 628.548L718.012 628.624Z"/>
	<path fill="#01BC9E" transform="scale(0.199219 0.199219)" d="M601.475 971.301C601.305 970.56 601.21 970.029 601.314 969.261L601.448 968.497C601.719 966.74 602.438 965.874 603.497 964.497C606.413 963.531 606.65 965.178 609.171 965.683L611.274 966.1L610.793 967.183L612.217 967.249C613.077 966.578 613.671 966.515 614.739 966.387L615.48 967.049C616.44 967.254 617.051 967.295 618.003 967.003C619.216 966.63 619.926 966.942 621.113 967.295L601.475 971.301Z"/>
	<path fill="#01BC9E" transform="scale(0.199219 0.199219)" d="M473.583 957.564L474.509 957.756C476.115 958.152 477.174 959.524 478.254 960.688C478.359 959.052 478.375 959.134 479.556 957.984L480.944 958.983C481.558 959.393 481.413 959.245 482.344 959.352L482.954 959.886C483.802 960.551 484.197 960.621 485.228 960.727L485.84 959.329C487.124 959.194 487.824 959.052 489.024 959.641C491.026 959.023 491.845 959.916 493.827 959.194L494.343 959.415C495.632 959.925 497.039 960.098 498.415 960.148C499.351 960.183 499.685 960.386 500.532 960.674C501.733 961.082 502.673 960.95 503.815 961.685L504.174 964.689C504.679 963.836 504.887 963.123 505.103 962.157L507 960.628C509.805 961.511 510.672 962.4 513.839 962.16C515.362 961.238 515.693 961.156 517.475 961.094L519.148 963.476C520.007 963.582 520.124 963.52 520.885 963.196C522.247 963.318 523.307 964.024 524.616 964.193C526.537 964.442 528.074 964.218 530.023 964.668C531.47 965.003 532.844 964.876 534.336 965.351C535.306 965.661 536.277 965.703 537.244 966.016C538.246 966.34 539.071 966.009 540.024 965.668C542.097 966.09 544.287 965.961 546.281 966.481C548.437 967.044 550.739 966.234 552.805 967.157C553.772 966.438 553.891 966.182 555.125 966.385L555.588 966.512C557.636 967 559.842 966.346 561.901 966.96C563.232 967.357 563.555 967.01 564.833 966.73C565.95 966.485 567.256 966.729 568.238 967.224C569.746 966.403 573.113 966.516 574.788 967.092C575.736 967.417 576.52 968.574 577.025 968.754C578.141 969.152 579.257 968.04 580.944 968.806L581.019 970.779L581.976 971.299C581.508 972.106 581.857 971.773 580.812 972.158L581.25 973.26L581.724 973.444C582.516 973.782 582.242 973.664 583.052 974.313L514.904 978.169C506.533 978.546 497.034 980.299 488.743 979.011C489.912 978.644 491.162 978.546 492.375 978.375L479.255 965L479.75 964.636L487.5 972.151L488.063 971.75L473.583 957.564Z"/>
	<defs>
		<linearGradient id="gradient_3" gradientUnits="userSpaceOnUse" x1="716.21674" y1="645.23767" x2="753.99408" y2="721.53143">
			<stop offset="0" stop-color="white" stop-opacity="0.90588236"/>
			<stop offset="1" stop-color="white"/>
		</linearGradient>
	</defs>
	<path fill="url(#gradient_3)" transform="scale(0.199219 0.199219)" d="M718.012 628.624L746.574 628.548L773.711 628.556C777.129 628.557 781.502 629.066 784.815 628.521C769.786 667.142 746.414 701.421 717.883 731.292C711.005 738.492 704.481 745.458 696.574 751.576L696.149 751.532L695.681 751.399L695.664 628.768L718.012 628.624Z"/>
	<path fill="#CEE8F9" transform="scale(0.199219 0.199219)" d="M718.012 628.624L746.574 628.548L747.25 629.37L746.974 629.782C745.877 631.627 745.269 633.951 744.328 635.915L738.266 647.198C730.73 660.58 721.963 673.429 712.614 685.601C707.481 692.285 702.172 699.163 696.124 705.036L696.149 751.532L695.681 751.399L695.664 628.768L718.012 628.624Z"/>
	<path fill="#02D9C7" transform="scale(0.199219 0.199219)" d="M331.086 943.203L332.002 942.003C333.252 939.597 335.873 937.58 337.835 935.621L350.664 922.836C352.319 921.191 354.508 919.5 356 917.762L356.271 917.25C357.941 916.609 359.657 914.379 360.937 913.099L370.278 903.753C371.923 902.106 373.99 900.478 375.5 898.77L375.801 898.25C377.944 897.387 379.701 894.559 381.308 892.951L382.5 891.778C384.441 889.411 386.87 886.942 389.221 884.938C391.335 883.138 393.216 881.378 395.634 879.972L410.942 895.496L455.272 939.453L468.617 952.806C470.062 954.253 471.828 956.558 473.583 957.564L488.063 971.75L487.5 972.151L479.75 964.636L479.255 965L492.375 978.375C491.162 978.546 489.912 978.644 488.743 979.011C486.271 979.276 483.185 978.741 480.667 978.578L461.653 976.853C437.821 974.076 414.209 970.204 391 964.014C370.477 958.541 350.751 951.148 331.086 943.203Z"/>
	<path fill="#FF9400" transform="scale(0.199219 0.199219)" d="M785.967 414.683L814.585 414.841C822.356 414.853 830.098 414.441 837.639 416.696C842.59 418.178 847.502 421.235 851.088 424.965L856.161 431.028C858.535 436.231 859.761 440.46 860.229 446.16C860.879 454.089 860.474 462.27 860.46 470.237L860.402 513.088L860.229 568.533C860.156 576.806 860.511 585.291 859.936 593.538C859.698 596.952 858.89 600.343 857.713 603.553C854.233 613.039 847.287 620.949 838.063 625.152C826.635 630.359 812.677 629.011 800.421 628.922C795.224 628.884 789.974 629.236 784.815 628.521C781.502 629.066 777.129 628.557 773.711 628.556L746.574 628.548L718.012 628.624L695.664 628.768L695.814 592.029L695.8 569.052L695.711 550.493L695.674 533.468L695.786 513.004L695.762 494.779L695.751 476.959L695.777 455.903C695.354 451.812 695.751 447.335 695.755 443.192L695.654 414.926L718.556 414.931L747.637 414.736L785.967 414.683ZM695.786 513.004L695.674 533.468L695.711 550.493L717.431 550.708L796.658 550.997L813.548 551.038C817.045 551.106 821.817 551.936 825.095 550.503C827.179 549.592 827.881 548.08 828.746 546.082L829.17 544.636C829.986 540.992 829.196 537.998 827.28 534.891L826.887 534.495C825.885 533.63 824.856 533.258 823.559 533.132C819.582 532.747 815.368 533.002 811.363 533L788.906 532.99L717.858 532.993L717.963 513.012L695.786 513.004ZM717.77 494.502L695.762 494.779L695.786 513.004L717.963 513.012L774.194 513.24L813.932 513.431C816.903 513.365 821.783 513.732 824.568 512.762C826.922 511.941 827.537 510.425 828.549 508.315L828.606 507.771L828.993 504C829.056 501.479 828.375 497.981 826.378 496.25C825.289 495.307 823.924 494.965 822.514 494.834C815.612 494.191 807.995 494.998 801.001 495.009L758.223 494.903L717.77 494.502Z"/>
	<path fill="#FE6F00" transform="scale(0.199219 0.199219)" d="M695.751 476.959L718.453 477.022L717.77 494.502L695.762 494.779L695.751 476.959Z"/>
	<path fill="#FE6F00" transform="scale(0.199219 0.199219)" d="M695.711 550.493L717.431 550.708C718.385 552.213 718.059 554.187 718.055 555.917L717.988 569.465L695.8 569.052L695.711 550.493Z"/>
	<path fill="#FE6F00" transform="scale(0.199219 0.199219)" d="M695.814 592.029L718.353 591.92L718.012 628.624L695.664 628.768L695.814 592.029Z"/>
	<path fill="#FE6F00" transform="scale(0.199219 0.199219)" d="M695.654 414.926L718.556 414.931L718.329 454.024L702.646 453.97C700.703 453.966 697.993 453.624 696.175 454.25L695.777 455.903C695.354 451.812 695.751 447.335 695.755 443.192L695.654 414.926Z"/>
	<defs>
		<linearGradient id="gradient_4" gradientUnits="userSpaceOnUse" x1="822.70636" y1="491.69217" x2="697.26544" y2="515.52814">
			<stop offset="0" stop-color="white" stop-opacity="0.83529413"/>
			<stop offset="1" stop-color="white"/>
		</linearGradient>
	</defs>
	<path fill="url(#gradient_4)" transform="scale(0.199219 0.199219)" d="M717.77 494.502L758.223 494.903L801.001 495.009C807.995 494.998 815.612 494.191 822.514 494.834C823.924 494.965 825.289 495.307 826.378 496.25C828.375 497.981 829.056 501.479 828.993 504L828.606 507.771L828.549 508.315C827.537 510.425 826.922 511.941 824.568 512.762C821.783 513.732 816.903 513.365 813.932 513.431L774.194 513.24L717.963 513.012L695.786 513.004L695.762 494.779L717.77 494.502Z"/>
	<path fill="#FEFEFE" transform="scale(0.199219 0.199219)" d="M758.223 494.903L801.001 495.009C807.995 494.998 815.612 494.191 822.514 494.834C823.924 494.965 825.289 495.307 826.378 496.25C828.375 497.981 829.056 501.479 828.993 504L828.606 507.771L828.549 508.315C827.16 507.738 826.539 506.739 825.799 505.484C824.814 503.814 824.737 502.834 825.232 500.969C825.471 500.069 825.717 499.379 825.586 498.438C825.445 497.418 825.016 497.39 824.25 496.781C823.284 496.542 822.573 496.384 821.575 496.534C817.969 497.079 814.6 496.5 810.995 496.208L798.539 495.708L765 496.245C763.545 494.805 756.318 496.031 753.769 495.461C754.789 494.829 756.977 494.971 758.223 494.903Z"/>
	<path fill="#FECC01" transform="scale(0.199219 0.199219)" d="M778.201 569.246L804.162 569.471C809.537 569.486 815.26 568.68 820.566 569.699C822.319 570.036 823.994 570.956 825.334 572.119C827.778 574.239 828.909 577.484 829.031 580.652C829.16 584.022 828.215 587.007 825.777 589.438C824.72 590.492 823.11 591.395 821.634 591.676C813.92 593.143 804.744 592.344 796.885 592.193L770.75 592.032L718.348 592.014L718.013 569.473L778.201 569.246Z"/>
	<path fill="#FECC01" transform="scale(0.199219 0.199219)" d="M718.439 454.006L801.053 454.052C804.605 454.075 820.086 453.446 822.425 454.84L822.962 455.27C825.764 457.363 827.161 459.069 827.969 462.579C828.954 466.863 827.897 470.292 825.668 473.946C824.065 475.328 822.982 476.049 820.862 476.406C816.234 477.185 811.324 477.01 806.644 477.015L786.392 477.027L718.358 477.02L718.439 454.006Z"/>
	<defs>
		<linearGradient id="gradient_5" gradientUnits="userSpaceOnUse" x1="791.15985" y1="505.57626" x2="729.0979" y2="577.28131">
			<stop offset="0" stop-color="white" stop-opacity="0.92156863"/>
			<stop offset="1" stop-color="white"/>
		</linearGradient>
	</defs>
	<path fill="url(#gradient_5)" transform="scale(0.199219 0.199219)" d="M695.786 513.004L717.963 513.012L717.858 532.993L788.906 532.99L811.363 533C815.368 533.002 819.582 532.747 823.559 533.132C824.856 533.258 825.885 533.63 826.887 534.495L827.28 534.891C829.196 537.998 829.986 540.992 829.17 544.636L828.746 546.082C827.881 548.08 827.179 549.592 825.095 550.503C821.817 551.936 817.045 551.106 813.548 551.038L796.658 550.997L717.431 550.708L695.711 550.493L695.674 533.468L695.786 513.004Z"/>
	<path fill="#FEFEFE" transform="scale(0.199219 0.199219)" d="M827.28 534.891C829.196 537.998 829.986 540.992 829.17 544.636L828.746 546.082L828.045 545.633C827.146 544.89 825.275 542.993 824.993 541.933C824.312 539.373 825.972 536.942 827.28 534.891Z"/>
	<path fill="#FE6F00" transform="scale(0.199219 0.199219)" d="M695.786 513.004L717.963 513.012L717.858 532.993L695.674 533.468L695.786 513.004Z"/>
	<defs>
		<linearGradient id="gradient_6" gradientUnits="userSpaceOnUse" x1="706.47235" y1="597.56702" x2="316.19006" y2="573.28528">
			<stop offset="0" stop-color="#3C168B"/>
			<stop offset="1" stop-color="#6C3BBC"/>
		</linearGradient>
	</defs>
	<path fill="url(#gradient_6)" transform="scale(0.199219 0.199219)" d="M390.02 322.045L561.418 322.005L605.371 321.996C616.666 321.99 628.352 320.925 639.446 323.422C659.539 329.047 676.708 339.149 687.196 357.852C692.852 367.937 695.159 379.524 695.488 391C695.715 398.936 695.138 407.022 695.654 414.926L695.755 443.192C695.751 447.335 695.354 451.812 695.777 455.903L695.751 476.959L695.762 494.779L695.786 513.004L695.674 533.468L695.711 550.493L695.8 569.052L695.814 592.029L695.664 628.768L695.681 751.399C694.989 765.154 696.754 779.434 695.375 793.089C693.854 808.157 685.252 823.162 674.115 833.206C664.588 841.796 652.899 846.702 640.346 848.815C630.648 850.447 620.034 849.496 610.183 849.558L548.138 849.722L444.341 849.521C426.949 849.468 409.201 850.24 391.865 849.227L382.436 848.194C374.891 846.904 367.83 844.314 361.216 840.404C357.488 838.199 354.017 835.532 350.168 833.54C338.263 821.038 329.479 807.518 327.712 789.947C326.924 782.119 327.397 773.958 327.503 766.087L327.442 743.532L319.513 738.128L320.148 737.655C322.133 736.579 323.275 736.842 325.25 737.465L325.662 739.427L326.75 739.675C327.895 736.942 327.197 731.454 327.19 728.353L327.072 699.427L327.012 626.623L327.023 548.002L327.004 533.553L326.997 512.497L326.991 497.929L327.013 412.743C326.972 400.714 326.154 387.985 328.455 376.141C330.514 365.54 335.299 355.778 341.971 347.324C354.143 331.903 370.894 324.326 390.02 322.045ZM353.291 728.057L671.827 728.965C671.9 730.968 671.722 733.4 672.404 735.287L672.484 709.098L672.509 658.356L672.556 504.927L672.562 428.383L672.533 404.117C672.519 397.369 672.733 391.034 671.187 384.418C668.823 374.3 662.057 365.146 653.208 359.759C649.942 357.77 646.6 356.152 642.883 355.185C637.422 353.764 617.476 352.436 612.984 355.209C609.983 357.061 607.96 360.032 605.749 362.701C600.709 368.785 594.737 374.518 586.847 376.395L586 376.59C579.451 378.139 572.434 377.397 565.75 377.312L542.347 377.204L449.75 377.182C439.712 377.216 432.472 375.396 426.015 367.295C423.528 364.176 421.305 360.741 418.439 357.953C416.754 356.313 414.821 354.729 412.554 353.986C410.412 353.284 407.74 353.534 405.5 353.491L392.062 353.236C381.243 353.483 371.715 356.717 364.211 364.746C358.853 370.478 354.655 377.778 353.592 385.646C352.816 391.392 353.021 397.301 353.043 403.085L353.137 426.38L353.359 503.787L353.181 650.701L353.291 728.057Z"/>
	<path fill="#6C3BBE" transform="scale(0.199219 0.199219)" d="M328.079 415.75L328.664 416.337C328.744 418.883 329.075 421.56 328.25 424C327.652 421.168 327.737 418.589 328.079 415.75Z"/>
	<path fill="#A961EC" transform="scale(0.199219 0.199219)" d="M485.767 351.24L517.879 351.48C522.351 351.488 527.616 350.952 532 351.598C533.174 351.771 534.158 352.533 535.037 353.292C536.79 354.805 537.872 356.915 537.912 359.25C537.941 360.944 537.346 362.453 536.143 363.643C532.778 366.971 527.192 366.042 522.794 366.037L487.863 366.185C485.236 366.198 479.825 366.92 477.521 366.24C476.61 365.972 475.442 365.063 474.726 364.448C472.907 362.882 471.802 360.979 471.726 358.543C471.658 356.395 472.568 354.888 474.137 353.501L474.75 352.982C475.252 352.546 475.749 352.068 476.382 351.819C478.785 350.874 483.125 351.269 485.767 351.24Z"/>
	<path fill="#46D8FD" transform="scale(0.199219 0.199219)" d="M353.291 728.057L671.827 728.965C671.9 730.968 671.722 733.4 672.404 735.287L672.447 735.558C672.892 743.486 672.507 751.677 672.525 759.631C672.543 767.338 673.165 775.656 672.16 783.273C670.815 793.46 666.221 802.843 659.279 810.365C649.955 820.467 636.314 826.083 622.682 826.477L577.496 826.3L479.002 826.48L426.203 826.526C415.104 826.525 403.381 827.403 392.451 825.4C383.437 823.749 374.952 818.865 368.332 812.613C360.937 805.629 355.219 795.594 353.676 785.485C352.637 778.676 353.023 771.481 353.032 764.609L353.291 728.057Z"/>
	<path fill="#FD4433" transform="scale(0.199219 0.199219)" d="M505.111 749.579C508.478 749.297 512.774 749.009 516.067 749.782C519.021 750.475 521.836 751.221 524.549 752.616C531.15 756.011 535.989 762.432 538.089 769.505C540.071 776.179 539.013 784.096 535.569 790.122C530.962 798.184 524.788 801.545 516.111 804.017C512.022 805.379 505.368 804.22 501.454 802.672C493.885 799.678 488.634 794.379 485.518 786.873C482.692 780.064 482.316 773.401 485.257 766.506C489.292 757.047 495.946 753.172 505.111 749.579Z"/>
	<path fill="#FEE917" transform="scale(0.199219 0.199219)" d="M507.795 761.558C510.745 761.451 513.267 761.423 516.109 762.405C519.967 763.738 523.051 765.852 524.816 769.658C526.573 773.446 526.889 778.325 525.401 782.25C523.525 787.203 519.772 789.608 515.189 791.618C511.828 792.083 508.161 791.959 505 790.589C501.448 789.049 498.309 785.841 496.922 782.203C495.415 778.249 495.554 773.652 497.288 769.792C499.444 764.99 503.218 763.385 507.795 761.558Z"/>
	<path fill="#3BC5FE" transform="scale(0.199219 0.199219)" d="M353.291 728.057L353.181 650.701L353.359 503.787L353.137 426.38L353.043 403.085C353.021 397.301 352.816 391.392 353.592 385.646C354.655 377.778 358.853 370.478 364.211 364.746C371.715 356.717 381.243 353.483 392.062 353.236L405.5 353.491C407.74 353.534 410.412 353.284 412.554 353.986C414.821 354.729 416.754 356.313 418.439 357.953C421.305 360.741 423.528 364.176 426.015 367.295C432.472 375.396 439.712 377.216 449.75 377.182L542.347 377.204L565.75 377.312C572.434 377.397 579.451 378.139 586 376.59L586.847 376.395C594.737 374.518 600.709 368.785 605.749 362.701C607.96 360.032 609.983 357.061 612.984 355.209C617.476 352.436 637.422 353.764 642.883 355.185C646.6 356.152 649.942 357.77 653.208 359.759C662.057 365.146 668.823 374.3 671.187 384.418C672.733 391.034 672.519 397.369 672.533 404.117L672.562 428.383L672.556 504.927L672.509 658.356L672.484 709.098L672.404 735.287C671.722 733.4 671.9 730.968 671.827 728.965L353.291 728.057ZM380.074 397.924C382.42 400.332 384.422 402.119 387.5 403.595C391.403 404.896 394.053 404.752 397.82 403.144C401.615 401.525 404.551 398.641 405.948 394.738C407.397 390.692 407.435 385.6 405.397 381.75C403.563 378.286 400.074 375.405 396.272 374.363C392.734 373.394 387.846 374.231 384.733 376.042C380.929 378.255 378.195 382.36 377.241 386.629C376.234 391.14 377.619 394.317 380.074 397.924ZM370.243 423.759L370.563 424.033C372.434 425.73 374.123 426.458 376.432 427.364C379.205 426.662 382.046 425.913 383.992 423.64C385.906 421.403 386.352 418.944 385.962 416.076C385.592 413.347 383.912 411.528 381.769 409.978L377.408 408.088C373.68 409.763 370.498 411.667 369.078 415.75C367.974 418.924 368.881 420.884 370.243 423.759Z"/>
	<path fill="#FEFEFE" transform="scale(0.199219 0.199219)" d="M370.243 423.759C368.881 420.884 367.974 418.924 369.078 415.75C370.498 411.667 373.68 409.763 377.408 408.088L381.769 409.978C383.912 411.528 385.592 413.347 385.962 416.076C386.352 418.944 385.906 421.403 383.992 423.64C382.046 425.913 379.205 426.662 376.432 427.364C374.123 426.458 372.434 425.73 370.563 424.033L370.243 423.759ZM370.243 423.759C370.6 423.39 372.074 422.131 372.187 421.75C372.798 419.695 371.492 417.967 372.892 415.826C374.364 415.695 374.411 415.623 375.628 416.433C375.877 417.775 376.1 418.726 376.75 419.949C378.534 420.526 378.508 420.512 380.25 419.809C382.384 416.089 381.78 414.021 381.769 409.978L377.408 408.088C373.68 409.763 370.498 411.667 369.078 415.75C367.974 418.924 368.881 420.884 370.243 423.759Z"/>
	<defs>
		<linearGradient id="gradient_7" gradientUnits="userSpaceOnUse" x1="376.18408" y1="417.09332" x2="380.81592" y2="414.40668">
			<stop offset="0" stop-color="white" stop-opacity="0.83529413"/>
			<stop offset="1" stop-color="white" stop-opacity="0.87058824"/>
		</linearGradient>
	</defs>
	<path fill="url(#gradient_7)" transform="scale(0.199219 0.199219)" d="M370.243 423.759C368.881 420.884 367.974 418.924 369.078 415.75C370.498 411.667 373.68 409.763 377.408 408.088L381.769 409.978C381.78 414.021 382.384 416.089 380.25 419.809C378.508 420.512 378.534 420.526 376.75 419.949C376.1 418.726 375.877 417.775 375.628 416.433C374.411 415.623 374.364 415.695 372.892 415.826C371.492 417.967 372.798 419.695 372.187 421.75C372.074 422.131 370.6 423.39 370.243 423.759Z"/>
	<path fill="#FEFEFE" fill-opacity="0.98823529" transform="scale(0.199219 0.199219)" d="M380.074 397.924C377.619 394.317 376.234 391.14 377.241 386.629C378.195 382.36 380.929 378.255 384.733 376.042C387.846 374.231 392.734 373.394 396.272 374.363C400.074 375.405 403.563 378.286 405.397 381.75C407.435 385.6 407.397 390.692 405.948 394.738C404.551 398.641 401.615 401.525 397.82 403.144C394.053 404.752 391.403 404.896 387.5 403.595C384.422 402.119 382.42 400.332 380.074 397.924ZM380.074 397.924C382.42 400.332 384.422 402.119 387.5 403.595C387.875 402.889 388.077 402.476 388.766 402.022L389.245 401.75C387.934 401.531 387.781 401.529 386.824 400.626L388.418 399.62L387.837 398.585C385.846 397.844 384.307 396.405 382.25 395.881C381.33 396.439 380.775 397.123 380.074 397.924Z"/>
	<defs>
		<linearGradient id="gradient_8" gradientUnits="userSpaceOnUse" x1="382.58295" y1="398.78464" x2="384.88388" y2="397.44321">
			<stop offset="0" stop-color="white" stop-opacity="0.90980393"/>
			<stop offset="1" stop-color="white" stop-opacity="0.94509804"/>
		</linearGradient>
	</defs>
	<path fill="url(#gradient_8)" transform="scale(0.199219 0.199219)" d="M380.074 397.924C380.775 397.123 381.33 396.439 382.25 395.881C384.307 396.405 385.846 397.844 387.837 398.585L388.418 399.62L386.824 400.626C387.781 401.529 387.934 401.531 389.245 401.75L388.766 402.022C388.077 402.476 387.875 402.889 387.5 403.595C384.422 402.119 382.42 400.332 380.074 397.924Z"/>
	<path fill="#A3004F" transform="scale(0.199219 0.199219)" d="M394.686 606.906C391.202 602.016 389.007 595.362 387.064 589.715C376.127 557.921 378.115 520.625 393.059 490.449C406.874 462.552 432.318 439.551 461.952 429.593C485.958 421.527 511.861 419.244 536.653 425.027C543.09 426.528 549.67 428.316 555.598 431.281L521.55 443.367C518.866 441.882 515.256 442.352 512.25 442.376C500.32 442.471 489.695 443.785 478.216 447.069C447.305 455.912 421.325 478.724 406.038 506.719C393.544 529.598 388.438 557.438 390.959 583.287C391.392 587.732 391.882 592.172 392.71 596.562C393.38 600.113 394.491 603.244 394.686 606.906Z"/>
	<path fill="#F6356E" transform="scale(0.199219 0.199219)" d="M555.598 431.281C564.566 428.81 573.016 427.07 581.651 432.155C586.774 435.172 591.216 440.699 592.54 446.5L593.424 451.564C619.03 475.452 636.376 503.479 638.95 539.033C641.877 571.125 632.561 604.332 611.76 629.238C589.044 656.437 558.144 674.705 522.422 677.826C487.177 680.904 452.853 669.723 425.862 646.981C415.087 637.903 405.078 626.409 398.389 614.003C397.171 611.743 395.608 609.283 394.686 606.906C394.491 603.244 393.38 600.113 392.71 596.562C391.882 592.172 391.392 587.732 390.959 583.287C388.438 557.438 393.544 529.598 406.038 506.719C421.325 478.724 447.305 455.912 478.216 447.069C489.695 443.785 500.32 442.471 512.25 442.376C515.256 442.352 518.866 441.882 521.55 443.367L555.598 431.281Z"/>
	<path fill="#A3004F" transform="scale(0.199219 0.199219)" d="M593.424 451.564C619.03 475.452 636.376 503.479 638.95 539.033C636.849 534.015 635.444 528.822 633.453 523.781C628.561 511.403 620.596 499.657 611.452 490.047C608.799 487.26 605.181 483.12 601.881 481.218C603.353 485.017 604.717 489.126 605.126 493.202C605.675 498.688 605.418 504.365 605.429 509.876L605.458 536.914L605.467 563.578C605.479 570.08 605.701 576.69 605.043 583.163C604.508 588.427 603.395 593.672 601.263 598.532C596.796 608.72 588.787 616.984 578.25 621.009C567.338 625.176 554.803 625.74 544.04 620.797C533.577 615.992 525.461 607.362 521.504 596.5C519.841 591.935 519.383 587.369 519.409 582.54C519.416 581.135 519.238 579.379 519.927 578.107L520.328 577.465C523.848 587.023 530.28 595.583 539.439 600.334C549.269 605.433 560.946 606.424 571.5 603.056C580.435 600.204 587.72 593.902 591.86 585.437C595.339 578.324 596.121 565.892 593.592 558.37L593.424 451.564Z"/>
	<path fill="#FEFEFE" transform="scale(0.199219 0.199219)" d="M555.598 431.281C564.566 428.81 573.016 427.07 581.651 432.155C586.774 435.172 591.216 440.699 592.54 446.5L593.424 451.564L593.592 558.37C596.121 565.892 595.339 578.324 591.86 585.437C587.72 593.902 580.435 600.204 571.5 603.056C560.946 606.424 549.269 605.433 539.439 600.334C530.28 595.583 523.848 587.023 520.328 577.465C518.917 571.223 517.884 564.7 518.849 558.313C520.656 546.348 526.695 536.549 536.482 529.42C546.317 522.256 557.595 520.055 569.493 521.891L569.496 476.61L532.255 489.808C527.399 491.478 521.825 492.476 517.357 495.01C514.35 496.716 512.181 498.734 510.715 501.897C506.875 510.181 508.159 522.063 508.248 530.98L508.033 574.462L508.005 594.901C507.99 599.337 508.167 603.846 507.536 608.245C504.933 626.4 492.539 641.56 475.625 648.306C465.452 652.364 452.272 652.139 442.237 647.761C432.05 643.316 423.727 633.535 419.866 623.211C417.637 617.251 416.99 610.774 416.998 604.453C416.999 603.112 416.813 601.145 417.325 599.893C417.476 599.526 417.784 599.197 417.991 598.875L418.217 598.455C417.165 593.544 417.056 588.306 417.776 583.332L417.904 582.5L419.379 575.519C422.432 565.579 429.731 556.521 439.001 551.756C450.094 546.056 462.231 545.761 473.969 549.513L473.953 512.743C473.931 503.731 473.409 494.609 473.837 485.612C474.086 480.401 474.413 475.336 476.544 470.5C484.491 452.468 505.186 449.662 521.55 443.367L555.598 431.281Z"/>
	<path fill="#FEE917" transform="scale(0.199219 0.199219)" d="M520.328 577.465C518.917 571.223 517.884 564.7 518.849 558.313C520.656 546.348 526.695 536.549 536.482 529.42C546.317 522.256 557.595 520.055 569.493 521.891L569.476 539.423C560.939 539.153 553.661 539.998 547.104 546.226C542.552 550.55 540.44 556.738 540.54 562.943C540.646 569.551 543.899 575.92 548.704 580.359C553.704 584.978 559.3 587.392 566.134 586.967C573.991 586.478 581.143 582.386 586.184 576.485C590.855 571.015 591.771 564.981 593.592 558.37C596.121 565.892 595.339 578.324 591.86 585.437C587.72 593.902 580.435 600.204 571.5 603.056C560.946 606.424 549.269 605.433 539.439 600.334C530.28 595.583 523.848 587.023 520.328 577.465Z"/>
	<path fill="#FEE917" transform="scale(0.199219 0.199219)" d="M418.217 598.455C417.165 593.544 417.056 588.306 417.776 583.332L417.904 582.5L419.379 575.519C422.432 565.579 429.731 556.521 439.001 551.756C450.094 546.056 462.231 545.761 473.969 549.513L474.016 568.91C467.304 566.326 462.458 565.688 455.75 568.72C450.125 571.264 445.527 575.901 443.436 581.744C441.211 587.963 441.49 594.406 444.403 600.36C447.139 605.955 451.792 609.899 457.718 611.811C465.097 614.192 472.431 612.975 479.235 609.367C485.247 606.179 489.85 601.307 492.894 595.25C494.337 592.378 495.35 589.317 496.917 586.5C497.275 599.603 496.398 611.051 486.75 621.034C478.887 629.171 469.259 633.083 457.969 633.13C456.101 633.138 454.342 632.966 452.5 632.645L451.578 632.49C441 630.625 431.137 623.718 425.103 614.914C421.642 609.862 419.903 604.271 418.217 598.455Z"/>
	<path fill="#A3004F" transform="scale(0.199219 0.199219)" d="M496.917 586.5L496.96 519.149C496.962 508.486 496.23 497.359 497.001 486.75C497.128 485 497.48 483.364 498.259 481.78C499.583 479.088 501.961 477.317 504.57 475.942C513.746 471.108 524.528 468.362 534.376 465.096L569.506 453.022L569.496 476.61L532.255 489.808C527.399 491.478 521.825 492.476 517.357 495.01C514.35 496.716 512.181 498.734 510.715 501.897C506.875 510.181 508.159 522.063 508.248 530.98L508.033 574.462L508.005 594.901C507.99 599.337 508.167 603.846 507.536 608.245C504.933 626.4 492.539 641.56 475.625 648.306C465.452 652.364 452.272 652.139 442.237 647.761C432.05 643.316 423.727 633.535 419.866 623.211C417.637 617.251 416.99 610.774 416.998 604.453C416.999 603.112 416.813 601.145 417.325 599.893C417.476 599.526 417.784 599.197 417.991 598.875L418.217 598.455C419.903 604.271 421.642 609.862 425.103 614.914C431.137 623.718 441 630.625 451.578 632.49L452.5 632.645C454.342 632.966 456.101 633.138 457.969 633.13C469.259 633.083 478.887 629.171 486.75 621.034C496.398 611.051 497.275 599.603 496.917 586.5Z"/>
	<defs>
		<linearGradient id="gradient_9" gradientUnits="userSpaceOnUse" x1="617.64532" y1="302.22937" x2="67.458023" y2="691.63507">
			<stop offset="0" stop-color="#0186C3"/>
			<stop offset="1" stop-color="#01E7C0"/>
		</linearGradient>
	</defs>
	<path fill="url(#gradient_9)" transform="scale(0.199219 0.199219)" d="M331.086 943.203C261.078 913.719 198.158 866.085 149.94 807.461C85.8913 729.59 49.1815 630.293 45.3521 529.623C44.5968 509.768 44.7004 489.819 46.6684 470.02C58.8131 347.833 119.193 229.894 214.519 151.948C262.32 112.862 318.758 81.8782 378 64.0765C405.789 55.7262 433.971 50.2133 462.75 46.8213C489.399 43.6804 517.509 42.448 544.251 45.1483L543.417 45.4466C540.935 46.2501 537.914 45.8584 535.5 45.25C531.738 44.3019 521.286 46.3573 518.5 44.5L518.093 44.5536C515.009 44.9203 511.201 45.0633 508.125 44.625L507.25 45C505.726 45.4075 503.069 44.9867 501.43 44.9901C496.924 44.9994 492.141 45.7684 487.625 45.125L487.216 45.3687C485.497 46.1288 482.428 45.7507 480.43 46.0145C479.55 46.1307 479.089 46.0265 478.25 46C477.421 45.9738 476.859 46.0472 476.115 46.3765C474.328 47.1666 470.901 46.8232 468.74 47.1806C467.882 47.3224 468.593 47.2032 467.5 47.1225C466.674 47.0615 465.605 47.3135 464.828 47.5691C463.298 48.0721 461.193 47.8797 459.57 47.9989C457.465 48.1536 455.445 48.6571 453.352 48.8022C452.599 48.8544 451.974 48.9464 451.242 49.0758C447.979 49.6526 452.108 49.0235 449.5 49.1225L448.375 49.4975C445.866 50.0668 443.496 49.8237 441 50.6225L436.833 51.1708C436.001 51.2553 436.331 51.1926 435.5 51.745L434.508 51.7944C433.717 51.8367 433.016 51.9167 432.248 52.125C432.568 53.2516 432.228 52.8284 433.093 53.3478C433.908 53.8376 433.604 53.6092 434.245 54.25L433.5 54.6225L432.875 54.9975C433.349 55.9549 434.292 56.9565 435 57.755C435.58 58.4097 436.401 58.7848 436.949 59.5166C437.504 60.2576 437.631 61.1528 438.245 62L444.25 70.255L444.745 71L445.229 71.7027C445.958 72.7966 446.48 73.92 447.245 75L452.25 81.755L452.745 82.5L458.25 90.255L458.745 91L459.229 91.7027C460.088 92.9915 459.448 91.9853 460.075 93.2358C460.552 94.1888 461.128 94.624 461.865 95.3471C462.557 96.0265 462 95.4544 462.498 96.5025L469.25 105.755C469.998 106.782 469.53 106.165 470.043 107.189C470.581 108.263 471.379 108.949 472.245 109.75L472.325 110.314C472.506 111.214 472.82 111.278 473.245 112L473.998 114.002L475.245 115.5C475.25 116.655 475.208 116.455 475.745 117.5C475.944 117.887 475.998 118.445 475.998 118.875L475.623 119.5L475.25 120.755L475.745 121.25L475 121.75L474.998 122.498C474.417 122.498 474.725 122.572 474.125 122.125L473.5 122.745L474 123.255C476.173 123.255 481.358 122.66 483 123.755C485.853 123.755 489.996 123.216 492.5 124.255C493.447 124.648 494.529 124.428 495.5 124.377L497.375 124.375C498.6 123.7 499.845 123.581 501.25 124L502.125 124.375C503.935 124.861 508.203 124.499 510.141 124.309C512.758 124.052 515.572 124.414 518.25 124.255L519.375 124.375L519.828 124.134C520.649 123.771 521.372 123.788 522.25 123.755C523.438 124.935 525.55 124.54 527.217 124.516L564.564 124.517L576.553 124.506C578.015 124.504 579.785 124.19 581 125L581.656 124.939C583.795 124.764 587.2 124.3 589 125.5C590.634 125.324 591.629 124.908 593 126L594.75 125.755L595.25 126.5L595.813 126.431C597.327 126.283 598.783 126.986 600.25 127.255C601.416 127.469 600.341 127.52 601.5 127.877L602.497 128.002L603 128.5L603.75 128.255L604.25 129L604.875 129.002L605.5 129.5C606.104 129.876 606.683 130 607.375 130.002L607.875 130.478C608.554 131.079 608.802 130.998 609.5 131.377L610 131.75L610.875 132.002C611.663 132.412 612.082 132.983 613 133.377C613.947 133.785 613.669 133.635 614.25 134.5L614.997 134.502L615.75 135.5L616.375 135.502L616.985 136.22C617.619 136.948 618.055 137.226 618.997 137.502L619.75 138.5L620.497 138.502C621.862 139.915 629.241 146.666 629.25 148L629.758 148.492C630.579 149.313 631.242 149.815 631.25 151L631.589 151.526L631.458 153.038C634.222 158.002 637.067 162.943 638.459 168.5C640.435 176.392 640.024 185.233 640.013 193.314L639.945 222.821L639.97 235.042L639.963 250L639.572 286.902L639.223 299.96L639.446 323.422C628.352 320.925 616.666 321.99 605.371 321.996L561.418 322.005L390.02 322.045C370.894 324.326 354.143 331.903 341.971 347.324C335.299 355.778 330.514 365.54 328.455 376.141C326.154 387.985 326.972 400.714 327.013 412.743L326.991 497.929L326.997 512.497L327.004 533.553L327.023 548.002L327.012 626.623L327.072 699.427L327.19 728.353C327.197 731.454 327.895 736.942 326.75 739.675L325.662 739.427L325.25 737.465C323.275 736.842 322.133 736.579 320.148 737.655L319.513 738.128L327.442 743.532L327.503 766.087C327.397 773.958 326.924 782.119 327.712 789.947C329.479 807.518 338.263 821.038 350.168 833.54C350.748 835.725 351.94 837.001 353.43 838.628C358.558 844.228 364.67 849.216 370.096 854.574L395.634 879.972C393.216 881.378 391.335 883.138 389.221 884.938C386.87 886.942 384.441 889.411 382.5 891.778L381.308 892.951C379.701 894.559 377.944 897.387 375.801 898.25L375.5 898.77C373.99 900.478 371.923 902.106 370.278 903.753L360.937 913.099C359.657 914.379 357.941 916.609 356.271 917.25L356 917.762C354.508 919.5 352.319 921.191 350.664 922.836L337.835 935.621C335.873 937.58 333.252 939.597 332.002 942.003L331.086 943.203ZM389.626 229.405L389.494 235.095L389.45 245.787L389.354 264.508C389.315 268.734 389.435 273.203 388.596 277.348L388.534 277.36C388.495 278.299 388.15 280.411 388.37 281.25C388.627 282.228 389.239 282.175 389.28 283.411C389.47 289.185 389.002 294.916 389.473 300.685L390.02 322.045L561.418 322.005L605.371 321.996C616.666 321.99 628.352 320.925 639.446 323.422L639.223 299.96L639.572 286.902L639.963 250L639.97 235.042L639.945 222.821L639.245 220.25L638.179 220.25C634.491 215.311 632.088 209.237 628.394 204.153C613.165 183.195 591.546 167.582 565.558 163.844C548.089 161.332 529.977 162.436 512.377 162.491C495.529 162.544 476.886 160.824 460.49 164.833C446.499 168.254 433.679 175.017 422.221 183.67C412.685 190.871 405.016 200.008 398.695 210.107C395.704 214.885 393.145 219.872 389.812 224.431L389.766 229.322L389.626 229.405ZM232.158 412.248L231.351 412.386C227.099 413.055 221.968 412.464 217.591 412.423C198.257 412.244 181.492 413.979 168.989 430.5C164.725 436.133 162.283 441.84 161.345 448.846C160.358 456.217 160.949 464.206 160.967 471.657L161.025 512.548L161.015 561.725C161.014 570.501 160.319 579.909 161.532 588.6C163.236 600.811 169.745 611.471 179.65 618.829L183.637 621.624C187.686 623.125 191.776 624.833 196.021 625.666C201.291 626.699 206.904 626.483 212.248 626.496L235.099 626.495L260.783 626.639L262.227 626.643L271.553 626.543L327.012 626.623L327.023 548.002L327.004 533.553L326.997 512.497L326.991 497.929L327.013 412.743L261.284 412.509C254.394 412.372 246.718 413.087 239.955 412.039L232.158 412.248ZM232.158 412.248L239.955 412.039C246.718 413.087 254.394 412.372 261.284 412.509L327.013 412.743C326.972 400.714 326.154 387.985 328.455 376.141C330.514 365.54 335.299 355.778 341.971 347.324C354.143 331.903 370.894 324.326 390.02 322.045L389.473 300.685C389.002 294.916 389.47 289.185 389.28 283.411C389.239 282.175 388.627 282.228 388.37 281.25C388.15 280.411 388.495 278.299 388.534 277.36L388.596 277.348C389.435 273.203 389.315 268.734 389.354 264.508L389.45 245.787L374.97 252.673C367.294 256.584 359.849 260.986 352.561 265.575C297.37 300.32 256.498 352.087 232.158 412.248ZM327.012 626.623L271.553 626.543L262.227 626.643L260.783 626.639L235.099 626.495C236.577 630.354 238.075 634.437 240.109 638.032C251.884 667.337 272.322 695.064 294.831 717.076C299.598 721.738 304.894 726.974 310.348 730.812C312.843 733.232 316.473 736.48 319.513 738.128L320.148 737.655C322.133 736.579 323.275 736.842 325.25 737.465L325.662 739.427L326.75 739.675C327.895 736.942 327.197 731.454 327.19 728.353L327.072 699.427L327.012 626.623ZM231.002 248.784L230.898 272.276C230.883 276.432 230.569 280.914 231.008 285.034L230.369 286.288C225.016 283.261 220.974 281.818 214.805 283.583C210.361 284.855 206.256 288.383 204.159 292.469C202.343 296.007 201.602 300.759 202.906 304.6C204.704 309.893 208.747 313.742 213.75 315.989L216.505 317.107C220.274 322.324 226.702 326.56 233.053 327.82C238.269 328.855 244.128 327.104 248.359 324.035C253.57 320.256 256.781 313.546 257.578 307.284L257.671 306.5C258.45 300.363 258.028 293.821 258.024 287.618L257.927 253.377L261.51 255.94C263.19 255.332 264.678 254.654 266.219 253.75C266.959 252.581 267.282 251.909 267.485 250.5C266.791 246.901 260.389 242.095 257.683 239.557L246.83 230.468C245.16 229.043 243.226 226.979 241.286 225.966C240.428 225.518 239.614 225.594 238.82 225.25L238.075 224.731L237.25 224.5L236.5 224.193C234.17 224.541 233.159 224.964 231.684 226.75C230.131 230.98 230.938 237.401 230.942 241.931C230.945 243.992 230.613 246.812 231.002 248.784Z"/>
	<path fill="#0070BC" transform="scale(0.199219 0.199219)" d="M257.683 239.557C259.312 239.085 259.902 239.387 261.404 240.25C269.351 244.814 277.103 252.138 284.149 258.018C285.958 259.527 290.124 262.365 290.868 264.648C291.413 266.319 290.412 268.47 289.377 269.75C287.901 271.576 285.301 272.554 283.217 273.522C280.791 272.308 261.869 257.664 261.544 256.347L261.51 255.94C263.19 255.332 264.678 254.654 266.219 253.75C266.959 252.581 267.282 251.909 267.485 250.5C266.791 246.901 260.389 242.095 257.683 239.557Z"/>
	<path fill="#01BC9E" transform="scale(0.199219 0.199219)" d="M183.637 621.624C187.686 623.125 191.776 624.833 196.021 625.666C201.291 626.699 206.904 626.483 212.248 626.496L235.099 626.495C236.577 630.354 238.075 634.437 240.109 638.032C251.884 667.337 272.322 695.064 294.831 717.076C299.598 721.738 304.894 726.974 310.348 730.812C312.843 733.232 316.473 736.48 319.513 738.128L327.442 743.532L327.503 766.087L327.11 765.907C321.52 762.934 316.44 755.819 311.974 751.299L286.927 726.208L219.39 658.778L185.684 625.014C184.589 623.855 184.082 623.159 183.637 621.624Z"/>
	<defs>
		<linearGradient id="gradient_10" gradientUnits="userSpaceOnUse" x1="229.63225" y1="228.80653" x2="235.73932" y2="314.8833">
			<stop offset="0" stop-color="white" stop-opacity="0.83137256"/>
			<stop offset="1" stop-color="white"/>
		</linearGradient>
	</defs>
	<path fill="url(#gradient_10)" transform="scale(0.199219 0.199219)" d="M231.002 248.784C230.613 246.812 230.945 243.992 230.942 241.931C230.938 237.401 230.131 230.98 231.684 226.75C233.159 224.964 234.17 224.541 236.5 224.193L237.25 224.5L238.075 224.731L238.82 225.25C239.614 225.594 240.428 225.518 241.286 225.966C243.226 226.979 245.16 229.043 246.83 230.468L257.683 239.557C260.389 242.095 266.791 246.901 267.485 250.5C267.282 251.909 266.959 252.581 266.219 253.75C264.678 254.654 263.19 255.332 261.51 255.94L257.927 253.377L258.024 287.618C258.028 293.821 258.45 300.363 257.671 306.5L257.578 307.284C256.781 313.546 253.57 320.256 248.359 324.035C244.128 327.104 238.269 328.855 233.053 327.82C226.702 326.56 220.274 322.324 216.505 317.107L213.75 315.989C208.747 313.742 204.704 309.893 202.906 304.6C201.602 300.759 202.343 296.007 204.159 292.469C206.256 288.383 210.361 284.855 214.805 283.583C220.974 281.818 225.016 283.261 230.369 286.288L231.008 285.034C230.569 280.914 230.883 276.432 230.898 272.276L231.002 248.784ZM231.002 248.784L230.898 272.276C230.883 276.432 230.569 280.914 231.008 285.034C232.781 283.976 232.33 278.912 233.145 276.877C234.352 273.863 233.627 270.666 233.482 267.5C233.356 264.76 233.536 261.98 233.181 259.25C232.729 255.776 231.73 252.218 231.002 248.784Z"/>
	<path fill="#FEFEFE" fill-opacity="0.98039216" transform="scale(0.199219 0.199219)" d="M231.002 248.784C231.73 252.218 232.729 255.776 233.181 259.25C233.536 261.98 233.356 264.76 233.482 267.5C233.627 270.666 234.352 273.863 233.145 276.877C232.33 278.912 232.781 283.976 231.008 285.034C230.569 280.914 230.883 276.432 230.898 272.276L231.002 248.784Z"/>
	<path fill="#FEFEFE" transform="scale(0.199219 0.199219)" d="M239.758 302.123L239.497 302.077C239.344 301.199 239.307 300.131 239.5 299.25C239.705 298.314 239.893 298.036 239.893 297L239.934 282.875C240.881 273.21 239.877 262.748 239.877 253L239.607 252.857C239.587 255.216 239.26 257.27 239.058 259.558C238.818 262.265 239.306 265.065 238.849 267.752C238.612 269.147 238.523 270.508 238.433 271.919L237.893 272.116C237.258 270.412 237.669 268.915 237.706 267.149C237.841 260.688 239.013 254.485 238.697 248C238.585 245.717 238.178 240.894 239.644 239.25L240.598 240.055L240.799 275.629C240.841 282.239 241.371 289.091 240.782 295.665C240.592 297.781 240.541 300.149 239.758 302.123Z"/>
	<path fill="#0070BC" transform="scale(0.199219 0.199219)" d="M240.598 240.055C242.563 240.449 244.042 241.847 245.611 243.03C249.94 246.292 253.877 249.783 257.927 253.377L258.024 287.618C258.028 293.821 258.45 300.363 257.671 306.5L257.578 307.284C256.781 313.546 253.57 320.256 248.359 324.035C244.128 327.104 238.269 328.855 233.053 327.82C226.702 326.56 220.274 322.324 216.505 317.107C221.756 317.063 226.499 316.591 231.045 313.748C235.385 311.035 238.617 307.171 239.758 302.123C240.541 300.149 240.592 297.781 240.782 295.665C241.371 289.091 240.841 282.239 240.799 275.629L240.598 240.055Z"/>
	<path fill="#FEFEFE" fill-opacity="0.56470591" transform="scale(0.199219 0.199219)" d="M327.012 626.623L327.072 699.427L327.19 728.353C327.197 731.454 327.895 736.942 326.75 739.675L325.662 739.427L325.25 737.465C323.275 736.842 322.133 736.579 320.148 737.655L319.513 738.128C316.473 736.48 312.843 733.232 310.348 730.812C304.894 726.974 299.598 721.738 294.831 717.076C272.322 695.064 251.884 667.337 240.109 638.032C238.075 634.437 236.577 630.354 235.099 626.495L260.783 626.639L262.227 626.643L271.553 626.543L327.012 626.623ZM316.324 690.052L316.147 690.729C315.582 692.788 315.246 693.732 313.595 695.095L314.096 695.816L315.473 695.723C315.858 696.101 315.76 695.875 315.762 696.457C315.781 702.827 308.768 707.769 308.742 714.624C308.733 716.907 307.493 718.8 307.257 721C307.131 722.177 307.426 723.704 307.625 724.875C306.972 724.329 305.872 723.569 305.394 722.856C304.067 720.88 304.454 719.203 302.117 717.698C300.277 716.514 298.766 714.903 296.838 713.701L296.255 714L296.889 714.45C298.729 715.775 299.518 716.58 300.546 718.65C300.897 719.358 301.106 719.483 301.72 719.922C302.824 720.712 302.936 721.305 303.422 722.5C304.307 724.681 308.343 728.268 310.236 729.75L310.348 730.812C312.843 733.232 316.473 736.48 319.513 738.128L320.148 737.655C322.133 736.579 323.275 736.842 325.25 737.465L325.662 739.427L326.75 739.675C327.895 736.942 327.197 731.454 327.19 728.353L327.072 699.427L325.5 698.444L324.75 698.572C323.801 698.606 321.31 697.86 320.75 697.012C320.243 696.243 320.368 694.626 319.946 693.75C319.431 692.684 317.23 690.977 316.324 690.052ZM262.227 626.643L260.783 626.639L235.099 626.495C236.577 630.354 238.075 634.437 240.109 638.032L240.851 637.149L241.73 637.919L241.956 637.179L241.245 636.25L241.701 635.608C242.362 634.588 242.669 633.797 242.394 632.592L242.245 632C242.09 630.83 244.623 628.486 245.25 627.166C247.138 626.904 248.618 626.887 250.492 627.25L250.512 628.25L250.998 630.12C252.1 630.103 253.143 630.391 253.941 629.489L254.33 628.831L255.124 629.423C256.888 630.646 262.056 630.537 264.143 629.996L264.523 629.866L266 630.75C266.007 632.298 266.258 633.311 266.5 634.75C266.792 636.487 265.555 637.71 264.578 638.966L265.367 639.582L266.771 637.505C267.585 636.158 267.61 635.31 267.222 633.767L267.077 633.276C266.392 630.739 267.252 629.655 268.5 627.526C269.616 627.673 269.174 627.528 270.071 627.928C270.984 628.335 270.56 628.192 271.539 628.501L272.141 628.68L271.553 626.543L262.227 626.643ZM265.367 639.582C265.119 640.312 265.159 640.611 265.23 641.361L266.75 641.245L267.625 642.072L268.245 641.75C268.89 638.485 270.009 635.908 271.561 633C272.482 632.659 272.109 632.872 272.959 632.211L273.581 631.709L272.141 628.68L271.539 628.501C270.56 628.192 270.984 628.335 270.071 627.928C269.174 627.528 269.616 627.673 268.5 627.526C267.252 629.655 266.392 630.739 267.077 633.276L267.222 633.767C267.61 635.31 267.585 636.158 266.771 637.505L265.367 639.582Z"/>
	<path fill="#FEFEFE" fill-opacity="0.61176473" transform="scale(0.199219 0.199219)" d="M265.367 639.582L266.771 637.505C267.585 636.158 267.61 635.31 267.222 633.767L267.077 633.276C266.392 630.739 267.252 629.655 268.5 627.526C269.616 627.673 269.174 627.528 270.071 627.928C270.984 628.335 270.56 628.192 271.539 628.501L272.141 628.68L273.581 631.709L272.959 632.211C272.109 632.872 272.482 632.659 271.561 633C270.009 635.908 268.89 638.485 268.245 641.75L267.625 642.072L266.75 641.245L265.23 641.361C265.159 640.611 265.119 640.312 265.367 639.582Z"/>
	<path fill="#FEFEFE" fill-opacity="0.75686276" transform="scale(0.199219 0.199219)" d="M262.227 626.643L271.553 626.543L272.141 628.68L271.539 628.501C270.56 628.192 270.984 628.335 270.071 627.928C269.174 627.528 269.616 627.673 268.5 627.526C267.252 629.655 266.392 630.739 267.077 633.276L267.222 633.767C267.61 635.31 267.585 636.158 266.771 637.505L265.367 639.582L264.578 638.966C265.555 637.71 266.792 636.487 266.5 634.75C266.258 633.311 266.007 632.298 266 630.75L264.523 629.866L264.143 629.996C262.056 630.537 256.888 630.646 255.124 629.423L254.33 628.831L253.941 629.489C253.143 630.391 252.1 630.103 250.998 630.12L250.512 628.25L250.492 627.25C248.618 626.887 247.138 626.904 245.25 627.166C244.623 628.486 242.09 630.83 242.245 632L242.394 632.592C242.669 633.797 242.362 634.588 241.701 635.608L241.245 636.25L241.956 637.179L241.73 637.919L240.851 637.149L240.109 638.032C238.075 634.437 236.577 630.354 235.099 626.495L260.783 626.639L262.227 626.643ZM260.783 626.639L260.366 626.731L252.558 627.583C256.66 628.312 261.393 628.902 265.5 628.092L266.066 627.5C265.055 626.741 263.481 626.808 262.227 626.643L260.783 626.639Z"/>
	<path fill="#FEFEFE" fill-opacity="0.78823531" transform="scale(0.199219 0.199219)" d="M260.783 626.639L262.227 626.643C263.481 626.808 265.055 626.741 266.066 627.5L265.5 628.092C261.393 628.902 256.66 628.312 252.558 627.583L260.366 626.731L260.783 626.639Z"/>
	<defs>
		<linearGradient id="gradient_11" gradientUnits="userSpaceOnUse" x1="307.79782" y1="715.18402" x2="324.9751" y2="716.36932">
			<stop offset="0" stop-color="#FEFEFE" stop-opacity="0.74901962"/>
			<stop offset="1" stop-color="#FFFFFE" stop-opacity="0.88235295"/>
		</linearGradient>
	</defs>
	<path fill="url(#gradient_11)" transform="scale(0.199219 0.199219)" d="M316.324 690.052C317.23 690.977 319.431 692.684 319.946 693.75C320.368 694.626 320.243 696.243 320.75 697.012C321.31 697.86 323.801 698.606 324.75 698.572L325.5 698.444L327.072 699.427L327.19 728.353C327.197 731.454 327.895 736.942 326.75 739.675L325.662 739.427L325.25 737.465C323.275 736.842 322.133 736.579 320.148 737.655L319.513 738.128C316.473 736.48 312.843 733.232 310.348 730.812L310.236 729.75C308.343 728.268 304.307 724.681 303.422 722.5C302.936 721.305 302.824 720.712 301.72 719.922C301.106 719.483 300.897 719.358 300.546 718.65C299.518 716.58 298.729 715.775 296.889 714.45L296.255 714L296.838 713.701C298.766 714.903 300.277 716.514 302.117 717.698C304.454 719.203 304.067 720.88 305.394 722.856C305.872 723.569 306.972 724.329 307.625 724.875C307.426 723.704 307.131 722.177 307.257 721C307.493 718.8 308.733 716.907 308.742 714.624C308.768 707.769 315.781 702.827 315.762 696.457C315.76 695.875 315.858 696.101 315.473 695.723L314.096 695.816L313.595 695.095C315.246 693.732 315.582 692.788 316.147 690.729L316.324 690.052Z"/>
	<path fill="#CEE8F9" transform="scale(0.199219 0.199219)" d="M327.012 626.623L327.072 699.427L325.5 698.444L324.75 698.572C323.801 698.606 321.31 697.86 320.75 697.012C320.243 696.243 320.368 694.626 319.946 693.75C319.431 692.684 317.23 690.977 316.324 690.052C311.76 685.656 307.77 680.682 303.681 675.852C291.905 661.941 282.209 647.773 273.581 631.709L272.141 628.68L271.553 626.543L327.012 626.623Z"/>
	<path fill="#FEE917" transform="scale(0.199219 0.199219)" d="M389.626 229.405L389.859 198.631C389.876 190.351 388.667 180.616 390.755 172.531C394.578 157.725 403.576 142.722 417.089 134.865C425.085 130.216 433.144 127.182 442.312 125.964C449.725 124.979 457.082 125.479 464.521 125.517L490.672 125.396L549.213 125.448C560.341 125.463 571.744 124.972 582.843 125.62C588.493 125.95 594.049 126.695 599.513 128.198C611.77 131.57 625.204 142.119 631.458 153.038C634.222 158.002 637.067 162.943 638.459 168.5C640.435 176.392 640.024 185.233 640.013 193.314L639.945 222.821L639.245 220.25L638.179 220.25C634.491 215.311 632.088 209.237 628.394 204.153C613.165 183.195 591.546 167.582 565.558 163.844C548.089 161.332 529.977 162.436 512.377 162.491C495.529 162.544 476.886 160.824 460.49 164.833C446.499 168.254 433.679 175.017 422.221 183.67C412.685 190.871 405.016 200.008 398.695 210.107C395.704 214.885 393.145 219.872 389.812 224.431L389.766 229.322L389.626 229.405Z"/>
	<path fill="#FEFEFE" fill-opacity="0.26274511" transform="scale(0.199219 0.199219)" d="M244.755 395.931C245.162 394.254 245.272 394.046 246.495 392.832L247.997 392.697L249.44 394.246C249.998 394.852 250.615 395.352 251.25 395.873C257.125 395.867 264.615 394.515 269.284 398.988C270.242 399.906 270.664 400.591 271.073 401.833L270.281 403.539C269.377 405.515 268.136 409.323 266.629 410.75L265 409.832L264.565 410.069C261.57 411.562 257.915 410.581 254.679 410.445C251.861 410.327 249.119 410.622 246.41 411.401C244.258 412.019 242.18 412.219 239.955 412.039L240.562 411.529L240.942 411.21C242.04 408.54 241.045 406.548 240.804 403.881C240.737 403.141 240.364 400.741 240.579 400.132C240.805 399.494 243.758 397.139 244.457 396.297L244.755 395.931ZM240.562 411.529L239.955 412.039C242.18 412.219 244.258 412.019 246.41 411.401C249.119 410.622 251.861 410.327 254.679 410.445C257.915 410.581 261.57 411.562 264.565 410.069L265 409.832L266.629 410.75C268.136 409.323 269.377 405.515 270.281 403.539C266.882 402.037 264.438 404.666 261.384 403.893C258.609 403.19 257.23 399.833 253.731 400.684C253.562 400.725 253.395 400.776 253.233 400.837C251.758 401.393 250.974 402.528 250.294 403.884L247.544 408.528C246.446 410.159 243.497 411.12 241.633 411.447L240.562 411.529ZM240.942 411.21C241.695 410.94 242.321 410.78 242.905 410.207C243.5 409.624 243.154 409.871 243.783 409.46C244.765 408.818 245.781 408.256 246.451 407.25C247.17 406.17 247.076 405.303 246.845 404.111C245.535 403.519 244.632 403.844 243.304 404.162L242.75 404.301L241.899 403.75L241.686 402.25C244.144 399.844 244.608 399.341 244.755 395.931L244.457 396.297C243.758 397.139 240.805 399.494 240.579 400.132C240.364 400.741 240.737 403.141 240.804 403.881C241.045 406.548 242.04 408.54 240.942 411.21Z"/>
	<defs>
		<linearGradient id="gradient_12" gradientUnits="userSpaceOnUse" x1="243.30232" y1="406.67706" x2="245.64774" y2="405.24136">
			<stop offset="0" stop-color="white" stop-opacity="0.16470589"/>
			<stop offset="1" stop-color="white" stop-opacity="0.20392157"/>
		</linearGradient>
	</defs>
	<path fill="url(#gradient_12)" transform="scale(0.199219 0.199219)" d="M240.942 411.21C242.04 408.54 241.045 406.548 240.804 403.881C240.737 403.141 240.364 400.741 240.579 400.132C240.805 399.494 243.758 397.139 244.457 396.297L244.755 395.931C244.608 399.341 244.144 399.844 241.686 402.25L241.899 403.75L242.75 404.301L243.304 404.162C244.632 403.844 245.535 403.519 246.845 404.111C247.076 405.303 247.17 406.17 246.451 407.25C245.781 408.256 244.765 408.818 243.783 409.46C243.154 409.871 243.5 409.624 242.905 410.207C242.321 410.78 241.695 410.94 240.942 411.21Z"/>
	<path fill="#FEFEFE" fill-opacity="0.41960785" transform="scale(0.199219 0.199219)" d="M240.562 411.529L241.633 411.447C243.497 411.12 246.446 410.159 247.544 408.528L250.294 403.884C250.974 402.528 251.758 401.393 253.233 400.837C253.395 400.776 253.562 400.725 253.731 400.684C257.23 399.833 258.609 403.19 261.384 403.893C264.438 404.666 266.882 402.037 270.281 403.539C269.377 405.515 268.136 409.323 266.629 410.75L265 409.832L264.565 410.069C261.57 411.562 257.915 410.581 254.679 410.445C251.861 410.327 249.119 410.622 246.41 411.401C244.258 412.019 242.18 412.219 239.955 412.039L240.562 411.529Z"/>
	<path fill="#CEE8F9" transform="scale(0.199219 0.199219)" d="M271.073 401.833C292.729 360.413 324.911 323.513 363.587 297.25C371.021 292.201 378.961 288.291 386.555 283.565C386.247 281.851 387.41 277.413 388.15 275.75L388.534 277.36C388.495 278.299 388.15 280.411 388.37 281.25C388.627 282.228 389.239 282.175 389.28 283.411C389.47 289.185 389.002 294.916 389.473 300.685L390.02 322.045C370.894 324.326 354.143 331.903 341.971 347.324C335.299 355.778 330.514 365.54 328.455 376.141C326.154 387.985 326.972 400.714 327.013 412.743L261.284 412.509C254.394 412.372 246.718 413.087 239.955 412.039C242.18 412.219 244.258 412.019 246.41 411.401C249.119 410.622 251.861 410.327 254.679 410.445C257.915 410.581 261.57 411.562 264.565 410.069L265 409.832L266.629 410.75C268.136 409.323 269.377 405.515 270.281 403.539L271.073 401.833Z"/>
	<path fill="#99D43C" transform="scale(0.199219 0.199219)" d="M232.158 412.248L239.955 412.039C246.718 413.087 254.394 412.372 261.284 412.509L327.013 412.743L326.991 497.929L326.997 512.497L327.004 533.553L327.023 548.002L327.012 626.623L271.553 626.543L262.227 626.643L260.783 626.639L235.099 626.495L212.248 626.496C206.904 626.483 201.291 626.699 196.021 625.666C191.776 624.833 187.686 623.125 183.637 621.624L179.65 618.829C169.745 611.471 163.236 600.811 161.532 588.6C160.319 579.909 161.014 570.501 161.015 561.725L161.025 512.548L160.967 471.657C160.949 464.206 160.358 456.217 161.345 448.846C162.283 441.84 164.725 436.133 168.989 430.5C181.492 413.979 198.257 412.244 217.591 412.423C221.968 412.464 227.099 413.055 231.351 412.386L232.158 412.248ZM326.997 512.497L326.991 497.929C321.287 497.166 315.247 497.496 309.486 497.508L277.152 497.771L224.41 497.744C216.592 497.73 208.659 497.229 200.858 497.594C198.822 497.689 196.914 497.874 195.224 499.139C193.662 500.309 192.47 502.288 192.343 504.25C192.183 506.708 192.808 508.92 194.569 510.673C195.592 511.691 196.576 512.32 198.02 512.488C202.682 513.029 207.455 512.565 212.138 512.518L236.478 512.495L326.997 512.497Z"/>
	<defs>
		<linearGradient id="gradient_13" gradientUnits="userSpaceOnUse" x1="258.99323" y1="513.85266" x2="259.68985" y2="495.94055">
			<stop offset="0" stop-color="white" stop-opacity="0.96862745"/>
			<stop offset="1" stop-color="white"/>
		</linearGradient>
	</defs>
	<path fill="url(#gradient_13)" transform="scale(0.199219 0.199219)" d="M326.997 512.497L236.478 512.495L212.138 512.518C207.455 512.565 202.682 513.029 198.02 512.488C196.576 512.32 195.592 511.691 194.569 510.673C192.808 508.92 192.183 506.708 192.343 504.25C192.47 502.288 193.662 500.309 195.224 499.139C196.914 497.874 198.822 497.689 200.858 497.594C208.659 497.229 216.592 497.73 224.41 497.744L277.152 497.771L309.486 497.508C315.247 497.496 321.287 497.166 326.991 497.929L326.997 512.497Z"/>
	<path fill="#FEFEFE" transform="scale(0.199219 0.199219)" d="M327.023 548.002L252.844 548.255L203.453 548.418C201.189 548.332 197.743 548.556 195.897 547.133C193.944 545.629 192.41 543.252 192.376 540.749C192.348 538.67 193.078 537.007 194.545 535.546C196.151 533.945 197.796 533.483 199.997 533.193C203.796 532.693 207.908 533.183 211.75 533.196L235.31 533.02L327.004 533.553L327.023 548.002Z"/>
	<path fill="#FF9400" transform="scale(0.199219 0.199219)" d="M389.626 229.405L389.766 229.322L389.812 224.431C393.145 219.872 395.704 214.885 398.695 210.107C405.016 200.008 412.685 190.871 422.221 183.67C433.679 175.017 446.499 168.254 460.49 164.833C476.886 160.824 495.529 162.544 512.377 162.491C529.977 162.436 548.089 161.332 565.558 163.844C591.546 167.582 613.165 183.195 628.394 204.153C632.088 209.237 634.491 215.311 638.179 220.25L639.245 220.25L639.945 222.821L639.97 235.042L639.963 250L639.572 286.902L639.223 299.96L639.446 323.422C628.352 320.925 616.666 321.99 605.371 321.996L561.418 322.005L390.02 322.045L389.473 300.685C389.002 294.916 389.47 289.185 389.28 283.411C389.239 282.175 388.627 282.228 388.37 281.25C388.15 280.411 388.495 278.299 388.534 277.36L388.596 277.348C389.435 273.203 389.315 268.734 389.354 264.508L389.45 245.787L389.494 235.095L389.626 229.405ZM389.626 229.405L389.494 235.095L463.827 235.512C466.042 243.896 468.533 251.513 473.733 258.577L475.682 260.952L476.662 259.5L479 258.816L479.97 259.086L480.252 258.625L479.297 257C479.254 255.422 478.96 253.195 479.755 251.75C480.125 251.078 481.132 250.675 481.502 250.002C482.078 248.956 482.326 247.83 483 246.75C484.028 246.636 485.021 246.683 486.053 246.709C490.483 253.128 495.663 257.866 503 260.809C504.46 261.395 509.921 262.455 510.581 263.204C514.657 263.486 519.063 263.805 523.051 262.778L524 262.527C533.788 260.011 540.17 256.133 546.236 248.021L546.799 246.641C548.51 247.972 549.05 248.416 549.459 250.728C549.609 251.578 549.57 252.036 549.34 252.839L551.6 254.834C552.229 255.39 551.897 255.076 552.368 255.747C552.878 256.474 553.51 256.797 554.25 257.255C554.504 258.776 554.264 260.197 553.348 261.485C552.002 263.376 550.092 265.144 548.31 266.617C547 267.699 546.545 268.888 545.937 270.433L544.75 270.921L543.5 270.378C542.467 271.16 542.096 271.358 541.946 272.75L542.002 274.462C553.17 267.847 559.98 258.54 565.305 246.954C566.925 243.282 567.598 238.934 568.405 235.016L639.97 235.042L639.945 222.821L639.245 220.25L638.179 220.25C634.491 215.311 632.088 209.237 628.394 204.153C613.165 183.195 591.546 167.582 565.558 163.844C548.089 161.332 529.977 162.436 512.377 162.491C495.529 162.544 476.886 160.824 460.49 164.833C446.499 168.254 433.679 175.017 422.221 183.67C412.685 190.871 405.016 200.008 398.695 210.107C395.704 214.885 393.145 219.872 389.812 224.431L389.766 229.322L389.626 229.405ZM475.682 260.952C483.522 269.921 492.69 276.208 504.137 279.603L504.102 279.359C503.886 278.413 503.517 277.536 503.702 276.548C503.951 275.223 504.18 275.196 505.25 274.544C509.27 276.34 515.319 275.204 519.59 274.83C522.117 274.715 525.299 274.096 527.497 275.502L527.952 276.5L527.751 276.883C527.382 277.704 527.324 278.516 527.116 279.378L526.915 280.028C532.401 278.941 537.054 276.992 542.002 274.462L541.946 272.75C542.096 271.358 542.467 271.16 543.5 270.378L544.75 270.921L545.937 270.433C546.545 268.888 547 267.699 548.31 266.617C550.092 265.144 552.002 263.376 553.348 261.485C554.264 260.197 554.504 258.776 554.25 257.255C553.51 256.797 552.878 256.474 552.368 255.747C551.897 255.076 552.229 255.39 551.6 254.834L549.34 252.839C549.57 252.036 549.609 251.578 549.459 250.728C549.05 248.416 548.51 247.972 546.799 246.641L546.236 248.021C540.17 256.133 533.788 260.011 524 262.527L523.051 262.778C519.063 263.805 514.657 263.486 510.581 263.204C509.921 262.455 504.46 261.395 503 260.809C495.663 257.866 490.483 253.128 486.053 246.709C485.021 246.683 484.028 246.636 483 246.75C482.326 247.83 482.078 248.956 481.502 250.002C481.132 250.675 480.125 251.078 479.755 251.75C478.96 253.195 479.254 255.422 479.297 257L480.252 258.625L479.97 259.086L479 258.816L476.662 259.5L475.682 260.952ZM565.305 246.954C559.98 258.54 553.17 267.847 542.002 274.462C537.054 276.992 532.401 278.941 526.915 280.028L527.116 279.378C527.324 278.516 527.382 277.704 527.751 276.883L527.952 276.5L527.497 275.502C525.299 274.096 522.117 274.715 519.59 274.83C515.319 275.204 509.27 276.34 505.25 274.544C504.18 275.196 503.951 275.223 503.702 276.548C503.517 277.536 503.886 278.413 504.102 279.359L504.137 279.603C492.69 276.208 483.522 269.921 475.682 260.952L473.733 258.577C472.98 259.331 472.659 259.696 472.446 260.75C473.438 265.029 476.486 268.827 479.291 272.132C489.531 284.194 501.69 290.111 517.25 291.663L521.56 291.914C533.397 291.589 545.885 286.318 554.01 277.66C561.635 269.534 567.61 259.742 567.266 248.25L565.305 246.954Z"/>
	<path fill="#FE6F00" transform="scale(0.199219 0.199219)" d="M565.305 246.954L567.266 248.25C567.61 259.742 561.635 269.534 554.01 277.66C545.885 286.318 533.397 291.589 521.56 291.914L517.25 291.663C501.69 290.111 489.531 284.194 479.291 272.132C476.486 268.827 473.438 265.029 472.446 260.75C472.659 259.696 472.98 259.331 473.733 258.577L475.682 260.952C483.522 269.921 492.69 276.208 504.137 279.603L504.102 279.359C503.886 278.413 503.517 277.536 503.702 276.548C503.951 275.223 504.18 275.196 505.25 274.544C509.27 276.34 515.319 275.204 519.59 274.83C522.117 274.715 525.299 274.096 527.497 275.502L527.952 276.5L527.751 276.883C527.382 277.704 527.324 278.516 527.116 279.378L526.915 280.028C532.401 278.941 537.054 276.992 542.002 274.462C553.17 267.847 559.98 258.54 565.305 246.954ZM504.137 279.603C506.67 280.071 509.365 280.797 511.929 280.923L512.605 280.399C514.392 278.851 516.316 280.678 518.25 278.766L519.5 278.951C520.541 277.273 520.019 276.73 519.59 274.83C515.319 275.204 509.27 276.34 505.25 274.544C504.18 275.196 503.951 275.223 503.702 276.548C503.517 277.536 503.886 278.413 504.102 279.359L504.137 279.603ZM519.59 274.83C520.019 276.73 520.541 277.273 519.5 278.951L518.25 278.766C516.316 280.678 514.392 278.851 512.605 280.399L511.929 280.923C517.097 281.05 521.792 280.926 526.915 280.028L527.116 279.378C527.324 278.516 527.382 277.704 527.751 276.883L527.952 276.5L527.497 275.502C525.299 274.096 522.117 274.715 519.59 274.83Z"/>
	<defs>
		<linearGradient id="gradient_14" gradientUnits="userSpaceOnUse" x1="522.88556" y1="275.9592" x2="522.63873" y2="279.67523">
			<stop offset="0" stop-color="#FFFFFE" stop-opacity="0.3764706"/>
			<stop offset="1" stop-color="#FFFEFF" stop-opacity="0.41960785"/>
		</linearGradient>
	</defs>
	<path fill="url(#gradient_14)" transform="scale(0.199219 0.199219)" d="M519.59 274.83C522.117 274.715 525.299 274.096 527.497 275.502L527.952 276.5L527.751 276.883C527.382 277.704 527.324 278.516 527.116 279.378L526.915 280.028C521.792 280.926 517.097 281.05 511.929 280.923L512.605 280.399C514.392 278.851 516.316 280.678 518.25 278.766L519.5 278.951C520.541 277.273 520.019 276.73 519.59 274.83Z"/>
	<defs>
		<linearGradient id="gradient_15" gradientUnits="userSpaceOnUse" x1="512.50311" y1="274.49615" x2="510.79636" y2="279.60394">
			<stop offset="0" stop-color="#FFFFFD" stop-opacity="0.38431373"/>
			<stop offset="1" stop-color="#FFFDFF" stop-opacity="0.43529412"/>
		</linearGradient>
	</defs>
	<path fill="url(#gradient_15)" transform="scale(0.199219 0.199219)" d="M504.137 279.603L504.102 279.359C503.886 278.413 503.517 277.536 503.702 276.548C503.951 275.223 504.18 275.196 505.25 274.544C509.27 276.34 515.319 275.204 519.59 274.83C520.019 276.73 520.541 277.273 519.5 278.951L518.25 278.766C516.316 280.678 514.392 278.851 512.605 280.399L511.929 280.923C509.365 280.797 506.67 280.071 504.137 279.603Z"/>
	<defs>
		<linearGradient id="gradient_16" gradientUnits="userSpaceOnUse" x1="515.42706" y1="277.14062" x2="516.65662" y2="250.41016">
			<stop offset="0" stop-color="#FFFEFE" stop-opacity="0.50196081"/>
			<stop offset="1" stop-color="#FEFEFD" stop-opacity="0.63921571"/>
		</linearGradient>
	</defs>
	<path fill="url(#gradient_16)" transform="scale(0.199219 0.199219)" d="M475.682 260.952L476.662 259.5L479 258.816L479.97 259.086L480.252 258.625L479.297 257C479.254 255.422 478.96 253.195 479.755 251.75C480.125 251.078 481.132 250.675 481.502 250.002C482.078 248.956 482.326 247.83 483 246.75C484.028 246.636 485.021 246.683 486.053 246.709C490.483 253.128 495.663 257.866 503 260.809C504.46 261.395 509.921 262.455 510.581 263.204C514.657 263.486 519.063 263.805 523.051 262.778L524 262.527C533.788 260.011 540.17 256.133 546.236 248.021L546.799 246.641C548.51 247.972 549.05 248.416 549.459 250.728C549.609 251.578 549.57 252.036 549.34 252.839L551.6 254.834C552.229 255.39 551.897 255.076 552.368 255.747C552.878 256.474 553.51 256.797 554.25 257.255C554.504 258.776 554.264 260.197 553.348 261.485C552.002 263.376 550.092 265.144 548.31 266.617C547 267.699 546.545 268.888 545.937 270.433L544.75 270.921L543.5 270.378C542.467 271.16 542.096 271.358 541.946 272.75L542.002 274.462C537.054 276.992 532.401 278.941 526.915 280.028L527.116 279.378C527.324 278.516 527.382 277.704 527.751 276.883L527.952 276.5L527.497 275.502C525.299 274.096 522.117 274.715 519.59 274.83C515.319 275.204 509.27 276.34 505.25 274.544C504.18 275.196 503.951 275.223 503.702 276.548C503.517 277.536 503.886 278.413 504.102 279.359L504.137 279.603C492.69 276.208 483.522 269.921 475.682 260.952ZM546.236 248.021C540.17 256.133 533.788 260.011 524 262.527L523.051 262.778C519.063 263.805 514.657 263.486 510.581 263.204C510.632 263.853 510.981 264.097 511.502 264.498L512.255 265L512.75 265.745L519.5 265.745C520.749 264.915 522.968 265.247 524.5 265.245C525.632 264.493 526.669 264.747 528 264.745C529.061 264.04 529.763 264.248 531 264.245C532.151 263.48 533.158 263.64 534.5 262.745C534.815 261.483 535.067 260.373 535.745 259.25C536.716 259.051 537.496 258.924 538.374 258.439L538.875 258.125L538.255 259.25L538.875 259.748L538.875 260.875L538.605 261.656C541.274 261.399 543.317 257.937 544.986 255.982L546.122 254.557C547.012 253.087 546.321 252.902 546.32 251.75C546.32 251.643 546.812 250.883 546.828 250.75C546.899 250.121 546.383 248.7 546.236 248.021Z"/>
	<path fill="#FEFEFE" fill-opacity="0.5529412" transform="scale(0.199219 0.199219)" d="M546.236 248.021C546.383 248.7 546.899 250.121 546.828 250.75C546.812 250.883 546.32 251.643 546.32 251.75C546.321 252.902 547.012 253.087 546.122 254.557L544.986 255.982C543.317 257.937 541.274 261.399 538.605 261.656L538.875 260.875L538.875 259.748L538.255 259.25L538.875 258.125L538.374 258.439C537.496 258.924 536.716 259.051 535.745 259.25C535.067 260.373 534.815 261.483 534.5 262.745C533.158 263.64 532.151 263.48 531 264.245C529.763 264.248 529.061 264.04 528 264.745C526.669 264.747 525.632 264.493 524.5 265.245C522.968 265.247 520.749 264.915 519.5 265.745L512.75 265.745L512.255 265L511.502 264.498C510.981 264.097 510.632 263.853 510.581 263.204C514.657 263.486 519.063 263.805 523.051 262.778L524 262.527C533.788 260.011 540.17 256.133 546.236 248.021Z"/>
	<path fill="#FE6F00" transform="scale(0.199219 0.199219)" d="M389.473 300.685C393.034 298.758 525.35 299.806 543.671 299.806L639.223 299.96L639.446 323.422C628.352 320.925 616.666 321.99 605.371 321.996L561.418 322.005L390.02 322.045L389.473 300.685Z"/>
	<path fill="#FECC01" transform="scale(0.199219 0.199219)" d="M389.626 229.405L389.766 229.322L389.812 224.431C393.145 219.872 395.704 214.885 398.695 210.107C405.016 200.008 412.685 190.871 422.221 183.67C433.679 175.017 446.499 168.254 460.49 164.833C476.886 160.824 495.529 162.544 512.377 162.491C529.977 162.436 548.089 161.332 565.558 163.844C591.546 167.582 613.165 183.195 628.394 204.153C632.088 209.237 634.491 215.311 638.179 220.25L639.245 220.25L639.945 222.821L639.97 235.042L568.405 235.016C567.598 238.934 566.925 243.282 565.305 246.954C559.98 258.54 553.17 267.847 542.002 274.462L541.946 272.75C542.096 271.358 542.467 271.16 543.5 270.378L544.75 270.921L545.937 270.433C546.545 268.888 547 267.699 548.31 266.617C550.092 265.144 552.002 263.376 553.348 261.485C554.264 260.197 554.504 258.776 554.25 257.255C553.51 256.797 552.878 256.474 552.368 255.747C551.897 255.076 552.229 255.39 551.6 254.834L549.34 252.839C549.57 252.036 549.609 251.578 549.459 250.728C549.05 248.416 548.51 247.972 546.799 246.641L546.236 248.021C540.17 256.133 533.788 260.011 524 262.527L523.051 262.778C519.063 263.805 514.657 263.486 510.581 263.204C509.921 262.455 504.46 261.395 503 260.809C495.663 257.866 490.483 253.128 486.053 246.709C485.021 246.683 484.028 246.636 483 246.75C482.326 247.83 482.078 248.956 481.502 250.002C481.132 250.675 480.125 251.078 479.755 251.75C478.96 253.195 479.254 255.422 479.297 257L480.252 258.625L479.97 259.086L479 258.816L476.662 259.5L475.682 260.952L473.733 258.577C468.533 251.513 466.042 243.896 463.827 235.512L389.494 235.095L389.626 229.405ZM486.053 246.709C490.483 253.128 495.663 257.866 503 260.809C504.46 261.395 509.921 262.455 510.581 263.204C514.657 263.486 519.063 263.805 523.051 262.778L524 262.527C533.788 260.011 540.17 256.133 546.236 248.021L546.799 246.641C547.713 245.425 548.602 243.594 549.155 242.17C552.648 233.183 552.356 222.545 548.464 213.75C544.458 204.7 537.682 198.108 528.354 194.703C519.323 191.406 509.291 192.665 500.759 196.77C492.185 200.895 485.705 208.475 482.75 217.515C479.546 227.316 481.428 237.732 486.053 246.709ZM463.827 235.512C466.042 243.896 468.533 251.513 473.733 258.577L475.682 260.952L476.662 259.5L479 258.816L479.97 259.086L480.252 258.625L479.297 257C479.254 255.422 478.96 253.195 479.755 251.75C480.125 251.078 481.132 250.675 481.502 250.002C482.078 248.956 482.326 247.83 483 246.75C484.028 246.636 485.021 246.683 486.053 246.709C481.428 237.732 479.546 227.316 482.75 217.515C485.705 208.475 492.185 200.895 500.759 196.77C509.291 192.665 519.323 191.406 528.354 194.703C537.682 198.108 544.458 204.7 548.464 213.75C552.356 222.545 552.648 233.183 549.155 242.17C548.602 243.594 547.713 245.425 546.799 246.641C548.51 247.972 549.05 248.416 549.459 250.728C549.609 251.578 549.57 252.036 549.34 252.839L551.6 254.834C552.229 255.39 551.897 255.076 552.368 255.747C552.878 256.474 553.51 256.797 554.25 257.255C554.504 258.776 554.264 260.197 553.348 261.485C552.002 263.376 550.092 265.144 548.31 266.617C547 267.699 546.545 268.888 545.937 270.433L544.75 270.921L543.5 270.378C542.467 271.16 542.096 271.358 541.946 272.75L542.002 274.462C553.17 267.847 559.98 258.54 565.305 246.954C566.925 243.282 567.598 238.934 568.405 235.016C570.555 221.419 566.311 207.869 558.367 196.842C550.962 186.562 538.657 178.287 525.977 176.377C511.159 174.146 496.53 177.669 484.522 186.592C473.285 194.941 465.657 207.913 463.782 221.76C463.176 226.237 463.354 231.024 463.827 235.512Z"/>
	<defs>
		<linearGradient id="gradient_17" gradientUnits="userSpaceOnUse" x1="518.95642" y1="260.3277" x2="511.12897" y2="176.72198">
			<stop offset="0" stop-color="white" stop-opacity="0.83529413"/>
			<stop offset="1" stop-color="white"/>
		</linearGradient>
	</defs>
	<path fill="url(#gradient_17)" transform="scale(0.199219 0.199219)" d="M463.827 235.512C463.354 231.024 463.176 226.237 463.782 221.76C465.657 207.913 473.285 194.941 484.522 186.592C496.53 177.669 511.159 174.146 525.977 176.377C538.657 178.287 550.962 186.562 558.367 196.842C566.311 207.869 570.555 221.419 568.405 235.016C567.598 238.934 566.925 243.282 565.305 246.954C559.98 258.54 553.17 267.847 542.002 274.462L541.946 272.75C542.096 271.358 542.467 271.16 543.5 270.378L544.75 270.921L545.937 270.433C546.545 268.888 547 267.699 548.31 266.617C550.092 265.144 552.002 263.376 553.348 261.485C554.264 260.197 554.504 258.776 554.25 257.255C553.51 256.797 552.878 256.474 552.368 255.747C551.897 255.076 552.229 255.39 551.6 254.834L549.34 252.839C549.57 252.036 549.609 251.578 549.459 250.728C549.05 248.416 548.51 247.972 546.799 246.641C547.713 245.425 548.602 243.594 549.155 242.17C552.648 233.183 552.356 222.545 548.464 213.75C544.458 204.7 537.682 198.108 528.354 194.703C519.323 191.406 509.291 192.665 500.759 196.77C492.185 200.895 485.705 208.475 482.75 217.515C479.546 227.316 481.428 237.732 486.053 246.709C485.021 246.683 484.028 246.636 483 246.75C482.326 247.83 482.078 248.956 481.502 250.002C481.132 250.675 480.125 251.078 479.755 251.75C478.96 253.195 479.254 255.422 479.297 257L480.252 258.625L479.97 259.086L479 258.816L476.662 259.5L475.682 260.952L473.733 258.577C468.533 251.513 466.042 243.896 463.827 235.512Z"/>
	<path fill="#F6356E" transform="scale(0.199219 0.199219)" d="M486.053 246.709C481.428 237.732 479.546 227.316 482.75 217.515C485.705 208.475 492.185 200.895 500.759 196.77C509.291 192.665 519.323 191.406 528.354 194.703C537.682 198.108 544.458 204.7 548.464 213.75C552.356 222.545 552.648 233.183 549.155 242.17C548.602 243.594 547.713 245.425 546.799 246.641L546.236 248.021C540.17 256.133 533.788 260.011 524 262.527L523.051 262.778C519.063 263.805 514.657 263.486 510.581 263.204C509.921 262.455 504.46 261.395 503 260.809C495.663 257.866 490.483 253.128 486.053 246.709ZM513.355 211.039C508.195 212.845 503.648 215.25 501.22 220.427C499.037 225.08 498.771 229.562 500.655 234.335C502.258 238.396 505.238 242.032 509.25 243.908C512.575 245.463 516.102 245.451 519.67 245.095C524.28 243.718 528.938 241.221 531.207 236.754C533.519 232.204 534.217 227.414 532.555 222.532C531.104 218.268 528.363 214.747 524.282 212.774C520.681 211.034 517.246 210.927 513.355 211.039Z"/>
	<path fill="#FEFEFE" fill-opacity="0.98431373" transform="scale(0.199219 0.199219)" d="M513.355 211.039C517.246 210.927 520.681 211.034 524.282 212.774C528.363 214.747 531.104 218.268 532.555 222.532C534.217 227.414 533.519 232.204 531.207 236.754C528.938 241.221 524.28 243.718 519.67 245.095C516.102 245.451 512.575 245.463 509.25 243.908C505.238 242.032 502.258 238.396 500.655 234.335C498.771 229.562 499.037 225.08 501.22 220.427C503.648 215.25 508.195 212.845 513.355 211.039Z"/>
</svg>
